<svg width="129" height="58" xmlns="http://www.w3.org/2000/svg" xmlns:xlink="http://www.w3.org/1999/xlink" overflow="hidden"><defs><clipPath id="clip0"><rect x="576" y="327" width="129" height="58"/></clipPath><clipPath id="clip1"><rect x="577" y="328" width="127" height="57"/></clipPath><clipPath id="clip2"><rect x="577" y="328" width="127" height="57"/></clipPath><clipPath id="clip3"><rect x="547" y="328" width="186" height="65"/></clipPath></defs><g clip-path="url(#clip0)" transform="translate(-576 -327)"><g clip-path="url(#clip1)"><g clip-path="url(#clip2)"><g clip-path="url(#clip3)"><path d="M84.9654 15.1389C82.4441 14.7159 80.5229 12.5231 80.5229 9.88153 80.5229 6.93725 82.9097 4.55044 85.854 4.55044 86.2197 4.55044 86.577 4.58728 86.9221 4.65748" stroke="#70B9BE" stroke-width="1.99215" stroke-linecap="round" fill="none" transform="matrix(1 0 0 1.00393 547.864 328)"/><path d="M99.3614 15.1389C101.883 14.7159 103.804 12.5231 103.804 9.88153 103.804 6.93725 101.418 4.55044 98.4729 4.55044 98.107 4.55044 97.7498 4.58728 97.4047 4.65748" stroke="#70B9BE" stroke-width="1.99215" stroke-linecap="round" fill="none" transform="matrix(1 0 0 1.00393 547.864 328)"/><path d="M86.9104 7.65995C86.8008 7.23397 86.7425 6.78738 86.7425 6.32717 86.7425 3.38289 89.1293 0.996077 92.0736 0.996077 95.0179 0.996077 97.4047 3.38289 97.4047 6.32717 97.4047 6.78738 97.3464 7.23397 97.2368 7.65995" stroke="#70B9BE" stroke-width="1.99215" stroke-linecap="round" fill="none" transform="matrix(1 0 0 1.00393 547.864 328)"/><path d="M92.0386 10.63 92.0386 13.4219" stroke="#70B9BE" stroke-width="1.99215" stroke-linecap="round" fill="none" transform="matrix(1 0 0 1.00393 547.864 328)"/><path d="M87.1014 10.8644C86.8782 11.363 87.2873 13.2636 87.7709 13.5751" stroke="#70B9BE" stroke-width="1.99215" stroke-linecap="round" fill="none" transform="matrix(1 0 0 1.00393 547.864 328)"/><path d="M97.3421 10.8644C97.5654 11.363 97.1562 13.2636 96.6726 13.5751" stroke="#70B9BE" stroke-width="1.99215" stroke-linecap="round" fill="none" transform="matrix(1 0 0 1.00393 547.864 328)"/><path d="M39.4825 46.8156 39.4825 23.0174 30.0596 23.0174 30.0596 16.1365 57.5394 16.1365 57.5394 23.0174 48.1603 23.0174 48.1603 46.8156 39.4825 46.8156ZM73.7291 46.8156 73.7291 42.3891 73.1594 41.2934 73.1594 33.1415C73.1594 31.8267 72.7503 30.8186 71.9322 30.1174 71.1433 29.387 69.8723 29.0217 68.1192 29.0217 66.9797 29.0217 65.8256 29.2117 64.6569 29.5915 63.4882 29.9421 62.4947 30.4388 61.6766 31.0816L58.8717 25.4279C60.2157 24.5513 61.8227 23.8793 63.6927 23.4118 65.5919 22.9151 67.4765 22.6667 69.3464 22.6667 73.2032 22.6667 76.1835 23.5579 78.2872 25.3402 80.4201 27.0933 81.4866 29.8544 81.4866 33.6236L81.4866 46.8156 73.7291 46.8156ZM66.7168 47.2101C64.8175 47.2101 63.2106 46.8886 61.8957 46.2459 60.5809 45.6031 59.5729 44.7266 58.8717 43.6162 58.1996 42.5059 57.8636 41.2642 57.8636 39.8909 57.8636 38.43 58.2289 37.1736 58.9593 36.1217 59.719 35.0407 60.8731 34.2225 62.4217 33.6674 63.9703 33.083 65.9717 32.7909 68.426 32.7909L74.0359 32.7909 74.0359 37.1298 69.5655 37.1298C68.2215 37.1298 67.2719 37.3489 66.7168 37.7872 66.1908 38.2255 65.9279 38.8099 65.9279 39.5403 65.9279 40.2707 66.2055 40.8551 66.7606 41.2934 67.3157 41.7317 68.0754 41.9508 69.0396 41.9508 69.9453 41.9508 70.7635 41.7317 71.4939 41.2934 72.2536 40.8259 72.8088 40.1247 73.1594 39.1897L74.2989 42.2576C73.8606 43.8938 72.9987 45.1355 71.7131 45.9829 70.4567 46.801 68.7913 47.2101 66.7168 47.2101ZM95.3768 47.2101C93.3607 47.2101 91.3885 46.9763 89.4601 46.5088 87.5609 46.0414 86.0269 45.457 84.8582 44.7557L87.3564 39.0582C88.4667 39.7302 89.7669 40.2707 91.257 40.6798 92.7471 41.0596 94.2081 41.2495 95.6398 41.2495 97.0422 41.2495 98.0064 41.1034 98.5324 40.8113 99.0875 40.5191 99.3651 40.1247 99.3651 39.6279 99.3651 39.1605 99.1021 38.8244 98.5762 38.6199 98.0794 38.3861 97.4075 38.2108 96.5601 38.094 95.7421 37.9771 94.8362 37.8457 93.8428 37.6995 92.8494 37.5534 91.8414 37.3636 90.8187 37.1298 89.8253 36.8668 88.905 36.487 88.0576 35.9903 87.2395 35.4643 86.5821 34.7631 86.0854 33.8865 85.5886 33.01 85.3403 31.8997 85.3403 30.5557 85.3403 29.0363 85.7786 27.6922 86.6551 26.5235 87.5609 25.3256 88.8757 24.3906 90.5996 23.7186 92.3235 23.0174 94.4272 22.6667 96.9107 22.6667 98.5762 22.6667 100.256 22.842 101.95 23.1927 103.675 23.5141 105.121 24.0107 106.289 24.6828L103.791 30.3365C102.623 29.6645 101.454 29.2117 100.285 28.9779 99.1168 28.7149 98.0064 28.5834 96.9546 28.5834 95.5521 28.5834 94.5587 28.7441 93.9743 29.0655 93.4192 29.387 93.1416 29.7814 93.1416 30.2489 93.1416 30.7163 93.3899 31.0816 93.8867 31.3446 94.3834 31.5783 95.0408 31.7682 95.8589 31.9143 96.7062 32.0312 97.6266 32.1626 98.62 32.3088 99.6137 32.4256 100.607 32.6156 101.6 32.8785 102.623 33.1415 103.543 33.5359 104.361 34.0619 105.209 34.5586 105.881 35.2452 106.377 36.1217 106.874 36.9691 107.122 38.0648 107.122 39.4088 107.122 40.8697 106.67 42.1846 105.763 43.3533 104.887 44.522 103.572 45.457 101.819 46.1582 100.096 46.8595 97.948 47.2101 95.3768 47.2101ZM121.317 47.2101C118.278 47.2101 115.912 46.465 114.217 44.9749 112.523 43.4556 111.675 41.1765 111.675 38.1378L111.675 17.7581 120.002 17.7581 120.002 38.0502C120.002 38.8975 120.236 39.5695 120.704 40.0662 121.171 40.5337 121.77 40.7675 122.501 40.7675 123.494 40.7675 124.341 40.5191 125.043 40.0224L127.102 45.8514C126.401 46.3189 125.54 46.655 124.517 46.8595 123.494 47.0932 122.428 47.2101 121.317 47.2101ZM108.213 30.1612 108.213 23.9377 125.437 23.9377 125.437 30.1612 108.213 30.1612ZM133.961 55.7126C132.705 55.7126 131.434 55.5081 130.148 55.099 128.892 54.7192 127.869 54.2078 127.081 53.5651L129.973 47.736C130.47 48.1743 131.04 48.5103 131.682 48.744 132.355 49.007 133.012 49.1385 133.655 49.1385 134.56 49.1385 135.276 48.934 135.802 48.5249 136.328 48.1158 136.781 47.473 137.161 46.5965L138.257 43.8354 138.914 43.0026 146.978 23.0612 154.911 23.0612 144.655 47.7798C143.838 49.8251 142.887 51.4175 141.807 52.557 140.755 53.7257 139.571 54.5439 138.257 55.0114 136.971 55.4788 135.539 55.7126 133.961 55.7126ZM137.205 47.8237 126.73 23.0612 135.276 23.0612 142.99 42.2576 137.205 47.8237Z" fill="#70B9BE" transform="matrix(1 0 0 1.00393 547.864 328)"/></g></g></g></g></svg>