<svg width="265" height="175" viewBox="0 0 265 175" fill="none" xmlns="http://www.w3.org/2000/svg">
<mask id="mask0_101_204" style="mask-type:alpha" maskUnits="userSpaceOnUse" x="0" y="0" width="265" height="175">
<rect width="265" height="175" rx="16" fill="white"/>
</mask>
<g mask="url(#mask0_101_204)">
<ellipse cx="272.026" cy="30.5234" rx="151.572" ry="153.634" fill="url(#paint0_linear_101_204)" fill-opacity="0.3"/>
<path d="M-135.685 16.3535C-127.738 14.2568 -106.27 17.2374 -83.9709 45.9344C-56.0972 81.8055 1.82334 154.954 40.6136 107.926C79.404 60.898 89.177 11.3826 65.9991 5.69321C42.8212 0.00382569 28.9438 49.9659 88.3833 72.1362C147.823 94.3065 219.644 44.6073 217.644 -31.1374" stroke="#3DA0A7"/>
<path d="M276.971 168.512C280.01 196.907 253.385 204.901 240.505 198.479C194.459 174.886 214.845 163.385 234.61 137.004C254.375 110.623 273.933 140.118 276.971 168.512Z" stroke="#3DA0A7"/>
<path d="M277.257 96.4376C306.473 67.2218 306.473 19.8537 277.257 -9.36209C248.041 -38.5779 200.673 -38.5779 171.457 -9.36209C142.242 19.8537 142.242 67.2218 171.457 96.4376C200.673 125.653 248.041 125.653 277.257 96.4376Z" fill="#3DA0A7"/>
<path d="M224.361 116.021C264.392 116.021 296.844 83.5694 296.844 43.5381C296.844 3.5069 264.392 -28.9448 224.361 -28.9448C184.33 -28.9448 151.878 3.5069 151.878 43.5381C151.878 83.5694 184.33 116.021 224.361 116.021Z" fill="#FFF6FA"/>
<path d="M274.666 93.8467C302.451 66.0618 302.451 21.0136 274.666 -6.77122C246.881 -34.5561 201.833 -34.5561 174.048 -6.77122C146.263 21.0136 146.263 66.0618 174.048 93.8467C201.833 121.632 246.881 121.632 274.666 93.8467Z" fill="#BCE5E8"/>
<path d="M194.699 108.206C203.73 112.355 213.769 114.687 224.361 114.687C263.655 114.687 295.509 82.8322 295.509 43.5383C295.509 20.8128 284.84 0.590847 268.253 -12.4351C269.883 -4.00085 270.456 4.69567 270.991 13.2936C271.577 22.6847 272.154 32.1892 270.435 41.4398C268.311 52.8644 262.769 63.3846 256.339 73.0633C249.319 83.6276 240.984 93.5833 230.331 100.469C219.857 107.241 206.886 110.783 194.699 108.206Z" fill="#8FD2D7"/>
<path d="M264.734 83.9151C287.034 61.6154 287.034 25.4605 264.734 3.16079C242.435 -19.1389 206.28 -19.1389 183.98 3.16079C161.68 25.4605 161.68 61.6154 183.98 83.9151C206.28 106.215 242.435 106.215 264.734 83.9151Z" fill="#FFF6FA"/>
<path d="M224.361 98.1893C254.544 98.1893 279.012 73.7211 279.012 43.538C279.012 13.3549 254.544 -11.1133 224.361 -11.1133C194.178 -11.1133 169.709 13.3549 169.709 43.538C169.709 73.7211 194.178 98.1893 224.361 98.1893Z" fill="#ADDFE2"/>
<path d="M258.754 77.9346C277.751 58.9377 277.751 28.1376 258.754 9.14062C239.757 -9.85631 208.957 -9.85633 189.96 9.1406C170.963 28.1375 170.963 58.9377 189.96 77.9346C208.957 96.9315 239.757 96.9315 258.754 77.9346Z" fill="#FFF6FA"/>
<path d="M224.361 90.1433C250.468 90.1433 271.631 69.2774 271.631 43.5379C271.631 17.7985 250.468 -3.06738 224.361 -3.06738C198.254 -3.06738 177.09 17.7985 177.09 43.5379C177.09 69.2774 198.254 90.1433 224.361 90.1433Z" fill="#BCE5E8"/>
<path d="M192.523 19.2705C182.287 22.7461 174.559 30.1056 170.407 40.0629C165.916 50.8347 170.002 60.9914 178.299 68.4646C185.72 75.1475 196.937 77.8852 206.375 74.1337C215.49 70.509 222.756 60.7268 220.846 50.5421C218.997 40.6928 210.745 33.6204 200.598 34.3826C189.265 35.2343 181.948 45.1003 178.573 55.0316C176.939 59.8416 176.27 64.9926 177.142 70.0077C178.126 75.6656 182.761 80.6247 186.943 84.1824C195.4 91.3741 206.837 93.7018 217.486 90.966C239.676 85.2651 249.585 57.1691 241.258 37.3774C237.251 27.8543 228.628 20.6309 218.101 20.5359C208.639 20.4502 199.425 26.7977 196.104 35.6219C192.444 45.3482 194.33 55.9727 200.978 63.9154C208.181 72.5217 219.148 72.4956 228.684 68.267C237.859 64.1987 238.545 51.6919 232.894 44.448C227.061 36.9693 215.932 34.7125 208.047 40.5549C200.121 46.4291 195.079 58.3358 199.179 67.8011C203.11 76.8695 211.561 82.0467 221.12 83.3307C242.607 86.2193 264.76 63.3545 260.616 41.9396C256.471 20.5172 224.236 14.4046 211.772 31.3766C204.707 40.9985 200.95 52.8847 199.971 64.687C199.507 70.276 199.83 76.111 201.27 81.5379C202.808 87.3319 207.048 91.4673 211.449 95.2411C215.773 98.9479 220.246 102.332 225.935 103.478C231.021 104.503 236.292 102.612 241.001 100.914C243.685 99.9468 242.667 95.5878 239.954 96.5662C233.131 99.0262 227.197 100.482 220.537 96.5978C214.541 93.1017 207.849 87.1959 205.616 80.4905C201.528 68.2093 205.382 52.607 210.916 41.4252C213.98 35.2361 217.693 29.4142 224.579 27.2822C231.062 25.2751 238.343 25.7577 244.497 28.5755C249.984 31.0877 254.089 36.0543 255.94 41.7309C258.197 48.6543 255.271 56.2317 251.881 62.2438C245.384 73.7722 232.38 80.9397 219.157 78.53C213.749 77.5442 209.191 74.5232 205.737 70.3282C201.168 64.7765 201.481 57.8755 204.575 51.7385C207.877 45.1879 213.632 40.7208 221.217 41.9471C228.431 43.1137 233.006 50.7266 231.86 57.6537C230.701 64.6516 221.746 66.8059 215.758 66.8041C208.32 66.8022 202.443 60.1435 200.027 53.7102C195.46 41.5482 202.144 28.1711 214.845 25.3421C228.673 22.2616 237.762 36.2443 239.728 48.0336C241.972 61.4927 234.467 76.5396 223.108 83.7276C211.272 91.2175 196.082 87.4698 186.749 77.8964C181.516 72.5272 180.407 66.5003 181.997 59.3906C183.661 51.9529 187.549 44.8692 194.259 40.9481C208.199 32.8022 221.273 48.4381 214.422 61.6717C207.607 74.8363 189.966 72.9746 180.465 64.4205C175.586 60.028 172.47 54.1706 173.023 47.5473C173.59 40.7804 177.895 34.4497 182.686 29.936C185.767 27.0362 189.578 24.9694 193.562 23.6164C196.278 22.6977 195.255 18.3405 192.523 19.2705Z" fill="#FFA25F"/>
<path d="M199.888 83.7182C208.634 90.0694 219.103 92.1306 229.633 89.7731C241.022 87.2237 246.957 78.023 248.267 66.9344C249.44 57.0162 245.202 46.2761 236.69 40.7374C228.47 35.387 216.288 35.0999 209.073 42.5395C202.098 49.7331 201.086 60.5571 207.566 68.4011C214.802 77.162 227.082 77.4434 237.141 74.4653C242.013 73.0229 246.605 70.5964 250.196 66.9884C254.248 62.9183 255.623 56.2707 256.113 50.8029C257.105 39.746 252.403 29.0637 244.022 21.9465C226.558 7.11762 197.895 15.2449 186.54 33.4693C181.078 42.2376 180.156 53.4492 186.156 62.1001C191.548 69.8752 202.051 73.7348 211.174 71.3531C221.23 68.7272 228.815 61.0547 231.463 51.0414C234.333 40.1914 227.98 31.2516 219.021 25.9048C210.404 20.7612 199.796 27.4218 197.142 36.2163C194.403 45.2958 198.984 55.6874 208.307 58.7531C217.678 61.8336 230.311 59.0792 235.673 50.2661C240.811 41.822 240.157 31.9318 235.69 23.3852C225.645 4.17122 194.187 -0.718902 179.093 15.0269C163.992 30.7782 177.61 60.6279 198.663 61.0081C210.6 61.2243 222.473 57.4299 232.674 51.416C237.505 48.5684 242.084 44.938 245.684 40.6275C249.527 36.028 250.457 30.18 250.999 24.4046C251.531 18.7354 251.711 13.1278 249.363 7.82019C247.265 3.07541 242.678 -0.135587 238.573 -3.00184C236.232 -4.63438 233.261 -1.2873 235.626 0.36201C241.573 4.5123 246.188 8.51909 246.86 16.1991C247.466 23.1113 246.506 31.9859 242.32 37.6792C234.652 48.1081 219.689 53.9673 207.361 55.9017C200.538 56.9733 193.641 57.3013 187.925 52.9106C182.543 48.7752 178.735 42.5507 177.483 35.8995C176.367 29.9694 178.053 23.7505 181.618 18.9628C185.968 13.1241 193.846 11.1393 200.711 10.4349C213.874 9.0856 227.236 15.5673 232.9 27.7536C235.216 32.7388 235.38 38.2048 233.949 43.4453C232.054 50.3817 226.237 54.1089 219.441 55.1246C212.186 56.2092 205.216 54.0884 201.839 47.1874C198.628 40.6219 202.202 32.4928 208.52 29.4308C214.903 26.3372 221.832 32.4052 225.287 37.2972C229.577 43.3707 227.534 52.0142 223.675 57.702C216.381 68.4533 201.598 70.7157 191.958 61.979C181.462 52.4652 187.631 36.9729 196.123 28.5623C205.818 18.961 222.437 16.4022 234.864 21.529C247.813 26.8702 253.521 41.4382 251.089 54.5842C249.727 61.9567 245.444 66.3418 238.72 69.1465C231.687 72.0798 223.656 72.9949 216.582 69.7802C201.884 63.0991 207.104 43.3968 221.865 41.3524C236.549 39.3173 245.213 54.7985 243.711 67.4935C242.939 74.0143 239.957 79.9388 234.229 83.3101C228.377 86.754 220.721 86.8938 214.269 85.5855C210.123 84.745 206.235 82.8255 202.83 80.3525C200.518 78.6734 197.551 82.0223 199.888 83.7182Z" fill="#FFA25F"/>
<path d="M210.29 83.7182C219.036 90.0694 229.506 92.1306 240.036 89.7731C251.424 87.2237 257.36 78.023 258.67 66.9344C259.842 57.0162 255.604 46.2761 247.093 40.7374C238.873 35.387 226.69 35.0999 219.476 42.5395C212.501 49.7331 211.489 60.5571 217.968 68.4011C225.205 77.162 237.484 77.4434 247.544 74.4653C252.416 73.0229 257.008 70.5964 260.599 66.9884C264.65 62.9183 266.026 56.2707 266.516 50.8029C267.507 39.746 262.805 29.0637 254.425 21.9465C236.961 7.11762 208.298 15.2449 196.943 33.4693C191.481 42.2376 190.558 53.4492 196.559 62.1001C201.951 69.8752 212.454 73.7348 221.576 71.3531C231.633 68.7272 239.217 61.0547 241.866 51.0414C244.736 40.1914 238.383 31.2516 229.424 25.9048C220.807 20.7612 210.199 27.4218 207.545 36.2163C204.806 45.2958 209.386 55.6874 218.71 58.7531C228.08 61.8336 240.714 59.0792 246.076 50.2661C251.214 41.822 250.56 31.9318 246.092 23.3852C236.047 4.17122 204.589 -0.718902 189.496 15.0269C174.395 30.7782 188.013 60.6279 209.066 61.0081C221.002 61.2243 232.876 57.4299 243.077 51.416C247.908 48.5684 252.487 44.938 256.087 40.6275C259.93 36.028 260.86 30.18 261.402 24.4046C261.933 18.7354 262.114 13.1278 259.766 7.82019C257.667 3.07541 253.081 -0.135587 248.975 -3.00184C246.635 -4.63438 243.664 -1.2873 246.029 0.36201C251.976 4.5123 256.59 8.51909 257.263 16.1991C257.869 23.1113 256.909 31.9859 252.723 37.6792C245.054 48.1081 230.091 53.9673 217.763 55.9017C210.941 56.9733 204.043 57.3013 198.328 52.9106C192.946 48.7752 189.138 42.5507 187.886 35.8995C186.77 29.9694 188.456 23.7505 192.021 18.9628C196.371 13.1241 204.248 11.1393 211.114 10.4349C224.277 9.0856 237.639 15.5673 243.303 27.7536C245.619 32.7388 245.783 38.2048 244.352 43.4453C242.456 50.3817 236.64 54.1089 229.843 55.1246C222.588 56.2092 215.618 54.0884 212.242 47.1874C209.031 40.6219 212.605 32.4928 218.923 29.4308C225.307 26.3372 232.234 32.4052 235.69 37.2972C239.98 43.3707 237.937 52.0142 234.078 57.702C226.783 68.4533 212.001 70.7157 202.361 61.979C191.863 52.4652 198.033 36.9729 206.526 28.5623C216.22 18.961 232.84 16.4022 245.267 21.529C258.215 26.8702 263.924 41.4382 261.492 54.5842C260.129 61.9567 255.847 66.3418 249.123 69.1465C242.089 72.0798 234.059 72.9949 226.985 69.7802C212.286 63.0991 217.506 43.3968 232.268 41.3524C246.952 39.3173 255.616 54.7985 254.113 67.4935C253.342 74.0143 250.36 79.9388 244.631 83.3101C238.78 86.754 231.124 86.8938 224.672 85.5855C220.525 84.745 216.638 82.8255 213.233 80.3525C210.922 78.6734 207.955 82.0223 210.29 83.7182Z" fill="#FFA25F"/>
<path d="M188.601 64.8954C191.192 75.3895 197.864 83.718 207.432 88.705C217.78 94.1002 228.248 90.8948 236.402 83.2651C243.694 76.4406 247.378 65.4992 244.445 55.7767C241.612 46.3859 232.486 38.3108 222.175 39.3451C212.204 40.3459 204.452 47.9644 204.345 58.1397C204.226 69.5023 213.432 77.637 223.039 81.8469C227.693 83.8858 232.768 84.9928 237.838 84.5511C243.56 84.0535 248.897 79.8584 252.798 75.9951C260.685 68.1828 263.981 56.9862 262.164 46.1418C258.377 23.5472 231.23 11.2752 210.801 17.8817C200.97 21.0611 193.039 29.0355 192.045 39.5166C191.153 48.9372 196.691 58.6578 205.199 62.7205C214.579 67.197 225.324 66.2241 233.804 60.2792C242.993 53.8366 243.903 42.9084 240.503 33.0442C237.233 23.5565 224.83 21.8066 217.132 26.8178C209.183 31.9913 205.983 42.8878 211.133 51.2425C216.308 59.64 227.741 65.68 237.522 62.4019C246.894 59.2598 252.772 51.2798 254.868 41.8666C259.581 20.7033 238.69 -3.31886 216.999 -1.01915C195.301 1.28243 186.46 32.8765 202.307 46.7437C211.291 54.6045 222.812 59.3623 234.488 61.3452C240.015 62.2845 245.858 62.4615 251.389 61.4887C257.293 60.4507 261.775 56.5818 265.912 52.5172C269.975 48.5272 273.728 44.3583 275.355 38.7879C276.811 33.8083 275.376 28.3963 274.086 23.5584C273.35 20.8021 268.922 21.4431 269.665 24.2292C271.535 31.2365 272.478 37.2746 268.04 43.5774C264.047 49.2521 257.589 55.4151 250.718 57.0682C238.131 60.0947 222.916 54.9231 212.247 48.4526C206.341 44.8707 200.859 40.6757 199.321 33.6331C197.873 27.0004 198.976 19.7901 202.31 13.8973C205.281 8.64562 210.579 4.97802 216.394 3.61944C223.483 1.96082 230.785 5.52404 236.485 9.41342C247.416 16.8698 253.45 30.4389 249.92 43.4078C248.476 48.7117 245.077 52.9962 240.602 56.0786C234.68 60.1581 227.833 59.2561 221.981 55.65C215.736 51.7997 211.776 45.6852 213.647 38.2325C215.425 31.1433 223.401 27.2353 230.205 28.9685C237.08 30.7203 238.461 39.8259 237.948 45.7932C237.311 53.203 230.177 58.492 223.559 60.35C211.051 63.863 198.294 56.0618 196.561 43.1656C194.673 29.125 209.379 21.2623 221.293 20.31C234.896 19.2235 249.246 27.9845 255.438 39.9173C261.89 52.3495 256.859 67.1653 246.525 75.6448C240.729 80.4008 234.629 80.9915 227.682 78.7999C220.414 76.5076 213.686 72.0294 210.352 65.0072C203.425 50.4225 220.121 38.732 232.721 46.6859C245.256 54.6007 241.896 72.0182 232.561 80.753C227.767 85.2387 221.666 87.8441 215.113 86.7259C208.419 85.5854 202.478 80.7549 198.391 75.5945C195.763 72.2772 194.03 68.304 193.024 64.2189C192.338 61.4458 187.91 62.0944 188.601 64.8954Z" fill="#EABF58"/>
<path d="M185.186 26.2624C177.906 35.0065 175.012 45.8584 176.754 57.0812C178.64 69.2208 187.89 76.0939 199.446 78.2426C209.78 80.164 221.357 76.4591 227.766 67.907C233.957 59.6437 235.106 46.8704 227.795 38.7766C220.725 30.9494 209.429 29.1343 200.737 35.3942C191.032 42.3846 189.882 55.2623 192.31 66.034C193.486 71.2503 195.715 76.2429 199.254 80.2665C203.246 84.8044 210.132 86.7109 215.842 87.6073C227.385 89.4169 238.932 85.2237 246.991 76.9157C263.78 59.6045 257.239 28.9367 238.89 15.7422C230.062 9.39472 218.351 7.64666 208.846 13.3456C200.303 18.4669 195.519 29.2293 197.387 38.9761C199.444 49.7199 206.975 58.2217 217.309 61.6992C228.504 65.4675 238.336 59.42 244.575 50.3814C250.576 41.6895 244.32 30.0829 235.269 26.6855C225.922 23.1763 214.689 27.2651 210.822 36.8422C206.934 46.4697 208.949 59.9307 217.831 66.1757C226.342 72.1598 236.774 72.1616 246.063 68.0635C266.943 58.8497 274.267 26.1525 258.78 9.20279C243.288 -7.75247 210.989 4.46916 209.126 26.5568C208.069 39.0785 211.226 51.8127 216.832 62.946C219.486 68.2182 222.982 73.2798 227.257 77.3611C231.821 81.7183 237.898 83.1011 243.925 84.0721C249.842 85.0244 255.718 85.6039 261.456 83.5074C266.587 81.6326 270.279 77.0387 273.573 72.9276C275.452 70.5831 272.144 67.2304 270.245 69.5991C265.47 75.5571 260.944 80.123 252.829 80.2963C245.528 80.451 236.273 78.8259 230.585 74.0327C220.166 65.2531 215.054 49.1291 213.88 36.0464C213.229 28.8063 213.365 21.54 218.375 15.8429C223.093 10.4775 229.894 6.91238 236.968 6.0607C243.275 5.30034 249.689 7.50503 254.469 11.5845C260.301 16.5585 261.835 24.9709 262.097 32.2297C262.599 46.1492 254.861 59.7313 241.668 64.832C236.271 66.9193 230.518 66.7105 225.114 64.8413C217.959 62.3683 214.45 56.0003 213.857 48.7899C213.224 41.0931 215.935 33.9219 223.418 30.8562C230.537 27.9397 238.826 32.2596 241.603 39.1102C244.408 46.0299 237.551 52.8843 232.175 56.1736C225.496 60.2568 216.561 57.5098 210.857 53.0613C200.074 44.6508 198.725 28.9703 208.574 19.4527C219.297 9.09097 235.138 16.648 243.381 26.1524C252.79 37.0025 254.32 54.6361 248.072 67.3311C241.56 80.5572 225.863 85.5387 212.225 82.0724C204.577 80.1268 200.27 75.326 197.791 68.0691C195.199 60.4785 194.796 51.9804 198.667 44.7738C206.707 29.8014 227.035 36.6559 228.155 52.301C229.27 67.866 212.409 75.887 199.179 73.427C192.385 72.1635 186.371 68.6189 183.229 62.3664C180.02 55.9798 180.405 47.9308 182.228 41.2459C183.4 36.9503 185.687 32.9994 188.52 29.5964C190.441 27.2762 187.129 23.9273 185.186 26.2624Z" fill="#F7D075"/>
<path d="M260.26 19.9878C258.581 8.73521 252.408 -0.649979 242.874 -6.81857C232.561 -13.4922 221.275 -11.1645 211.977 -3.97282C203.663 2.46041 198.723 13.5639 200.838 24.0412C202.882 34.1625 211.649 43.5235 222.557 43.4546C233.105 43.3893 241.979 36.1678 243.092 25.5153C244.337 13.6179 235.492 4.18796 225.837 -1.16996C221.161 -3.76599 215.952 -5.42458 210.594 -5.46185C204.55 -5.50471 198.544 -1.63398 194.075 2.02991C185.04 9.43968 180.482 20.8488 181.318 32.3902C183.059 56.4421 210.3 71.9773 232.361 67.0667C242.976 64.7036 252.075 57.128 254.149 46.2425C256.013 36.4585 251.167 25.724 242.65 20.6289C233.263 15.0119 221.906 14.9728 212.432 20.368C202.167 26.2141 200.135 37.5767 202.726 48.2478C205.218 58.5126 218.043 61.569 226.605 57.0758C235.444 52.4372 239.872 41.3337 235.298 32.0715C230.703 22.7609 219.316 15.3045 208.744 17.7757C198.613 20.1443 191.665 27.9268 188.542 37.586C181.518 59.2991 201.043 86.5322 223.999 86.2601C246.965 85.9862 259.345 53.7473 244.104 37.6531C235.464 28.5288 223.859 22.4086 211.819 19.1809C206.118 17.6527 200.014 16.8905 194.122 17.3657C187.832 17.8707 182.753 21.4861 178.018 25.3364C173.368 29.1177 169.024 33.117 166.769 38.7936C164.753 43.8701 165.724 49.6828 166.598 54.8785C167.097 57.8398 171.801 57.6032 171.298 54.6102C170.03 47.0811 169.637 40.6628 174.908 34.4942C179.652 28.9425 187.027 23.1187 194.39 22.0639C207.879 20.1332 223.313 27.0528 233.856 34.8838C239.691 39.2185 245.025 44.1571 245.941 51.688C246.804 58.781 244.937 66.2299 240.865 72.0761C237.235 77.2868 231.319 80.6078 225.093 81.4594C217.499 82.4993 210.201 78.0453 204.61 73.4067C193.89 64.5154 188.905 49.6996 193.881 36.4585C195.916 31.041 199.903 26.8869 204.893 24.0989C211.502 20.4071 218.589 22.0266 224.364 26.3837C230.529 31.0335 234.076 37.832 231.383 45.458C228.82 52.7112 220.078 56.021 213.117 53.5349C206.086 51.0208 205.534 41.3431 206.662 35.1409C208.06 27.4386 216.058 22.6006 223.175 21.3054C236.629 18.8566 249.229 28.2902 249.777 41.9748C250.371 56.8745 234.186 63.6656 221.606 63.4885C207.245 63.2872 193.069 52.6907 187.755 39.5763C182.219 25.9123 188.952 10.8821 200.618 3.01391C207.161 -1.39915 213.611 -1.41779 220.676 1.56587C228.067 4.68558 234.676 10.0416 237.477 17.7272C243.299 33.6948 224.65 44.3006 212.23 34.7216C199.875 25.1929 205.111 7.27041 215.754 -0.964948C221.221 -5.19351 227.87 -7.32179 234.627 -5.50662C241.53 -3.65045 247.28 1.99636 251.053 7.80715C253.48 11.5418 254.904 15.8766 255.558 20.2562C256.005 23.2342 260.709 22.9938 260.26 19.9878Z" fill="#FCDB9A"/>
<path d="M200.076 -14.1519L201.008 -9.79654L203.729 -4.01003L205.301 91.9089L202.65 101.943L200.562 105.172L200.076 -14.1519Z" fill="url(#paint1_radial_101_204)"/>
<path d="M202.269 92.235C202.433 92.2648 202.553 92.2872 202.655 92.3095C202.769 92.3132 202.922 92.3188 203.147 92.3337C203.788 92.3729 204.424 92.3971 205.065 92.4046C205.1 92.4046 205.134 92.4102 205.169 92.412L205.302 91.9107L203.73 -4.0082L203.574 -4.3418C203.533 -4.31757 203.492 -4.29705 203.451 -4.27282C203.097 -4.06409 202.745 -3.84979 202.396 -3.62988C202.245 -3.48824 201.524 -2.91983 201.334 -2.73906C200.963 -2.38311 200.557 -2.08491 200.13 -1.83145L200.51 91.7877C201.088 91.9592 201.671 92.1269 202.269 92.235Z" fill="#8A6D3F"/>
<path d="M198.648 -34.2099L194.395 122.061C194.395 122.061 198.223 124.399 200.56 122.061V-34.2099C200.562 -34.2099 200.137 -37.4004 198.648 -34.2099Z" fill="#912828"/>
<path d="M199.658 -35.5928L195.575 122.618C195.575 122.618 197.37 123.259 198.574 123.052L198.48 116.296L199.658 -35.5928Z" fill="#B95F5F"/>
<path d="M199.658 -35.593L197.191 123.02C197.191 123.02 200.415 123.402 200.562 122.058L200.001 -35.5631C200.001 -35.5631 199.802 -35.6694 199.658 -35.593C199.515 -35.5147 199.658 -35.593 199.658 -35.593Z" fill="#AF4040"/>
<path d="M198.549 54.1877C198.549 54.9369 198.287 55.5463 197.962 55.5463C197.638 55.5463 197.375 54.9387 197.375 54.1877C197.375 53.4385 197.638 52.8291 197.962 52.8291C198.287 52.8291 198.549 53.4367 198.549 54.1877Z" fill="#FFA773"/>
<path d="M187.204 3.55813L187.707 8.90486L189.677 86.2658L188.441 88.5711C188.441 88.5711 187.07 89.9912 187.206 91.3926L185.26 90.7217L185.728 -0.325684L187.204 3.55813Z" fill="url(#paint2_radial_101_204)"/>
<path d="M187.653 8.34229C187.601 8.39819 187.548 8.45226 187.494 8.50817C186.978 9.24244 186.359 9.87231 185.672 10.3811L185.294 83.9309C185.763 84.0856 186.222 84.2757 186.643 84.5533C187.189 84.913 187.703 85.3137 188.212 85.7237C188.605 86.0163 189.008 86.2884 189.461 86.4915C189.485 86.5027 189.507 86.5195 189.531 86.5307L189.675 86.2642L187.705 8.90324L187.653 8.34229Z" fill="#8A6D3F"/>
<path d="M184.25 -34.2099L179.997 122.061C179.997 122.061 183.825 124.399 186.162 122.061V-34.2099C186.164 -34.2099 185.739 -37.4004 184.25 -34.2099Z" fill="#912828"/>
<path d="M185.26 -35.5928L181.177 122.618C181.177 122.618 182.971 123.259 184.175 123.052L184.082 116.296L185.26 -35.5928Z" fill="#B95F5F"/>
<path d="M185.26 -35.593L182.793 123.02C182.793 123.02 186.017 123.402 186.164 122.058L185.603 -35.5631C185.601 -35.5631 185.402 -35.6694 185.26 -35.593C185.117 -35.5147 185.26 -35.593 185.26 -35.593Z" fill="#AF4040"/>
<path d="M184.151 54.1877C184.151 54.9369 183.888 55.5463 183.564 55.5463C183.24 55.5463 182.977 54.9387 182.977 54.1877C182.977 53.4385 183.24 52.8291 183.564 52.8291C183.888 52.8291 184.151 53.4367 184.151 54.1877Z" fill="#FFA773"/>
<path d="M187.707 8.90479L191.203 86.5303L189.677 86.2639L187.707 8.90479Z" fill="#FFD38F"/>
<path d="M203.728 -4.01025L206.224 91.9851L205.167 92.41L203.728 -4.01025Z" fill="#FFD38F"/>
<path d="M197.962 99.1417C197.962 100.184 197.575 101.03 197.096 101.03C196.617 101.03 196.229 100.184 196.229 99.1417C196.229 98.1 196.617 97.2539 197.096 97.2539C197.575 97.2539 197.962 98.0981 197.962 99.1417Z" fill="white"/>
<path d="M183.271 61.4706C183.536 61.4706 183.75 61.0376 183.75 60.5034C183.75 59.9692 183.536 59.5361 183.271 59.5361C183.007 59.5361 182.792 59.9692 182.792 60.5034C182.792 61.0376 183.007 61.4706 183.271 61.4706Z" fill="white"/>
<path d="M260.849 74.3815C276.826 74.3815 289.778 62.0053 289.778 46.7384C289.778 31.4715 276.826 19.0952 260.849 19.0952C244.872 19.0952 231.92 31.4715 231.92 46.7384C231.92 62.0053 244.872 74.3815 260.849 74.3815Z" fill="#5C1A09"/>
<path d="M260.243 73.7441C275.885 73.7441 288.566 61.5106 288.566 46.4197C288.566 31.3288 275.885 19.0952 260.243 19.0952C244.6 19.0952 231.92 31.3288 231.92 46.4197C231.92 61.5106 244.6 73.7441 260.243 73.7441Z" fill="#6A2A2A"/>
<path d="M260.49 74.4311C275.824 74.4311 288.254 61.8316 288.254 46.2893C288.254 30.747 275.824 18.1475 260.49 18.1475C245.156 18.1475 232.726 30.747 232.726 46.2893C232.726 61.8316 245.156 74.4311 260.49 74.4311Z" fill="#D34040"/>
<path d="M260.49 73.3101C275.213 73.3101 287.148 61.2125 287.148 46.2893C287.148 31.3662 275.213 19.2686 260.49 19.2686C245.767 19.2686 233.832 31.3662 233.832 46.2893C233.832 61.2125 245.767 73.3101 260.49 73.3101Z" fill="#F35C53"/>
<path d="M278.802 64.8618C288.919 54.6068 288.92 37.9801 278.802 27.7251C268.685 17.4701 252.281 17.4702 242.164 27.7252C232.046 37.9801 232.046 54.6068 242.164 64.8618C252.281 75.1168 268.685 75.1168 278.802 64.8618Z" fill="#F35C53"/>
<path d="M260.49 72.1979C274.607 72.1979 286.051 60.5982 286.051 46.2891C286.051 31.9801 274.607 20.3804 260.49 20.3804C246.373 20.3804 234.929 31.9801 234.929 46.2891C234.929 60.5982 246.373 72.1979 260.49 72.1979Z" fill="#C02E24"/>
<path d="M278.102 64.1523C287.833 54.2891 287.833 38.2978 278.102 28.4346C268.371 18.5714 252.594 18.5714 242.864 28.4346C233.133 38.2978 233.133 54.2892 242.864 64.1523C252.594 74.0155 268.371 74.0155 278.102 64.1523Z" fill="#FF9D97"/>
<path d="M278.788 62.3335C287.172 52.0992 285.685 36.8306 275.467 28.2301C265.249 19.6296 250.168 20.9541 241.784 31.1884C233.4 41.4227 234.887 56.6913 245.105 65.2918C255.324 73.8923 270.404 72.5678 278.788 62.3335Z" fill="#DF6565"/>
<path d="M260.49 67.8317C272.227 67.8317 281.743 58.1869 281.743 46.2894C281.743 34.3919 272.227 24.7471 260.49 24.7471C248.752 24.7471 239.236 34.3919 239.236 46.2894C239.236 58.1869 248.752 67.8317 260.49 67.8317Z" fill="#FF9D97"/>
<path d="M267.306 65.7757C277.922 61.9435 283.462 50.1145 279.682 39.3548C275.901 28.595 264.23 22.9791 253.615 26.8113C243 30.6434 237.459 42.4725 241.24 53.2322C245.021 63.9919 256.691 69.6078 267.306 65.7757Z" fill="#FF8585"/>
<path d="M260.49 65.2387C270.815 65.2387 279.185 56.7549 279.185 46.2895C279.185 35.8242 270.815 27.3403 260.49 27.3403C250.165 27.3403 241.795 35.8242 241.795 46.2895C241.795 56.7549 250.165 65.2387 260.49 65.2387Z" fill="#F26C6C"/>
<path d="M260.49 64.5814C270.457 64.5814 278.537 56.3916 278.537 46.289C278.537 36.1864 270.457 27.9966 260.49 27.9966C250.523 27.9966 242.443 36.1864 242.443 46.289C242.443 56.3916 250.523 64.5814 260.49 64.5814Z" fill="#FF8585"/>
<path d="M268.585 48.2965C269.672 43.7529 266.92 39.1762 262.437 38.0742C257.955 36.9722 253.439 39.7622 252.352 44.3058C251.265 48.8494 254.018 53.4261 258.5 54.5281C262.983 55.6301 267.498 52.8401 268.585 48.2965Z" fill="#CA4844"/>
<path d="M261.176 53.9532C265.376 53.5586 268.465 49.7879 268.075 45.5311C267.686 41.2743 263.966 38.1434 259.766 38.538C255.567 38.9326 252.478 42.7033 252.867 46.9601C253.256 51.2169 256.976 54.3478 261.176 53.9532Z" fill="#FF928A"/>
<path d="M261.131 53.4671C265.065 53.0974 267.959 49.565 267.594 45.5772C267.23 41.5894 263.745 38.6563 259.81 39.026C255.876 39.3956 252.982 42.9281 253.347 46.9159C253.712 50.9037 257.197 53.8367 261.131 53.4671Z" fill="#FF685F"/>
<path d="M269.637 27.6025C267.481 31.3099 265.322 35.0196 263.166 38.727C263.253 39.0554 263.691 39.1709 264 39.035C264.308 38.8991 264.509 38.6002 264.695 38.3148C265.957 36.3807 267.219 34.4466 268.372 32.4446C269.112 31.1605 269.825 29.7971 269.921 28.3137C269.936 28.06 269.885 27.7362 269.641 27.675L269.637 27.6025Z" fill="#CA4844"/>
<path d="M261.413 43.2249C263.182 39.9999 264.952 36.7726 266.719 33.5476C268.015 31.1832 269.327 28.7849 270.013 26.1895C272.642 26.6968 275.096 27.965 277.02 29.8108C271.746 34.4671 266.793 39.5107 262.219 44.885L261.413 43.2249Z" fill="#DF6565"/>
<path d="M264.165 46.3145C267.606 46.8535 271.047 47.3925 274.488 47.9315C277.011 48.3278 279.567 48.7241 282.105 48.4614C282.469 51.1203 282.096 53.8787 281.041 56.3428C275.228 52.9977 269.17 50.0898 262.932 47.6552L264.165 46.3145Z" fill="#DF6565"/>
<path d="M244.972 61.2139C247.857 57.7466 251.51 55.0402 255.127 52.3678C254.904 51.9873 254.607 51.6499 254.258 51.3804C252.357 52.8706 250.549 54.4808 248.847 56.1998C247.338 57.7217 245.895 59.3614 244.977 61.3068L244.972 61.2139Z" fill="#CA4844"/>
<path d="M257.802 48.8389C255.212 51.1988 252.623 53.5564 250.035 55.9163C248.136 57.6465 246.217 59.3995 244.809 61.5578C242.548 60.1604 240.675 58.1221 239.462 55.7351C245.696 53.2892 251.751 50.3744 257.558 47.0181L257.802 48.8389Z" fill="#DF6565"/>
<path d="M261.042 68.0578C260.233 63.4332 259.866 58.727 259.949 54.0299C260.353 53.9054 260.776 53.8487 261.198 53.8623C262.085 58.4983 262.13 63.2995 261.33 67.9536L261.042 68.0578Z" fill="#CA4844"/>
<path d="M261.638 50.0466C262.831 53.3622 264.022 56.6778 265.215 59.9934C266.089 62.4234 266.978 64.8852 268.428 67.0141C266.306 68.6198 263.741 69.6186 261.104 69.8677C261.194 63.0938 260.785 56.3109 259.882 49.5981L261.638 50.0466Z" fill="#DF6565"/>
<path d="M243.156 33.4182C244.431 33.69 245.276 34.8699 246.174 35.8279C248.402 38.2105 251.563 39.6146 253.503 42.244C253.697 42.0039 253.892 41.7638 254.086 41.5238C254.146 41.449 254.209 41.3698 254.216 41.2747C254.225 41.1546 254.144 41.0482 254.068 40.9553C251.499 37.839 248.706 34.7205 245.037 33.0876C244.364 32.7886 243.524 32.5622 242.941 33.0128C242.937 33.1034 242.93 33.1963 242.923 33.2869L243.156 33.4182Z" fill="#CA4844"/>
<path d="M257.027 43.8682C254.289 41.6873 251.555 39.504 248.817 37.3231C246.811 35.7242 244.778 34.1071 242.438 33.0721C243.41 30.5741 245.07 28.3569 247.182 26.7354C250.627 32.5422 254.497 38.0886 258.754 43.3133L257.027 43.8682Z" fill="#DF6565"/>
<path d="M259.305 37.4155C257.974 36.3216 257.29 34.4736 257.585 32.7614C257.724 31.9552 258.126 31.1217 258.87 30.7979C259.828 30.3812 260.999 31.0311 261.441 31.9891C261.882 32.9471 261.736 34.0863 261.372 35.076C261.008 36.0702 260.436 36.9852 259.703 37.7439C259.609 37.694 259.386 37.4812 259.305 37.4155Z" fill="#CA4844"/>
<path d="M259.551 36.5256C258.456 35.6265 257.896 34.1068 258.137 32.7004C258.251 32.0368 258.582 31.3506 259.191 31.0856C259.978 30.7414 260.943 31.2781 261.305 32.0663C261.667 32.8544 261.546 33.7898 261.249 34.6051C260.95 35.4226 260.478 36.1745 259.877 36.7996C259.801 36.7543 259.618 36.5799 259.551 36.5256Z" fill="#FAD383"/>
<path d="M260.693 33.1425C260.42 33.4754 259.933 33.5207 259.603 33.2444C259.272 32.9681 259.229 32.4744 259.502 32.1392C259.775 31.8063 260.262 31.761 260.592 32.0373C260.921 32.3136 260.966 32.8095 260.693 33.1425Z" fill="#E4B34C"/>
<path d="M260.324 35.2279C260.137 35.4566 259.806 35.4951 259.587 35.3094C259.368 35.126 259.343 34.7885 259.531 34.5598C259.719 34.331 260.049 34.2925 260.268 34.4783C260.487 34.6617 260.512 34.9991 260.324 35.2279Z" fill="#E4B34C"/>
<path d="M260.59 32.5442C260.454 32.7118 260.186 32.7117 259.989 32.5487C259.795 32.3834 259.746 32.1161 259.882 31.9485C260.018 31.7809 260.288 31.7809 260.483 31.944C260.679 32.1093 260.726 32.3788 260.59 32.5442Z" fill="#FFEAB8"/>
<path d="M251.666 46.0399C250.507 47.3195 248.643 47.8948 246.976 47.4894C246.19 47.2991 245.394 46.8394 245.122 46.0671C244.771 45.0729 245.486 43.9269 246.456 43.5396C247.426 43.1524 248.538 43.372 249.49 43.8023C250.446 44.2326 251.313 44.869 252.013 45.6572C251.959 45.7478 251.736 45.9607 251.666 46.0399Z" fill="#CA4844"/>
<path d="M250.806 45.735C249.852 46.7859 248.322 47.2592 246.95 46.9286C246.304 46.7723 245.649 46.3941 245.426 45.7599C245.138 44.9424 245.725 44.0002 246.523 43.6832C247.321 43.3661 248.235 43.545 249.019 43.8983C249.805 44.2516 250.516 44.7748 251.092 45.4225C251.048 45.495 250.864 45.6716 250.806 45.735Z" fill="#FAD383"/>
<path d="M247.544 44.367C247.855 44.6637 247.87 45.1597 247.578 45.4745C247.285 45.7893 246.796 45.8051 246.485 45.5084C246.174 45.2118 246.159 44.7158 246.451 44.401C246.744 44.0862 247.233 44.0703 247.544 44.367Z" fill="#E4B34C"/>
<path d="M249.577 44.872C249.792 45.0758 249.807 45.4133 249.613 45.6239C249.419 45.8345 249.086 45.839 248.871 45.6329C248.657 45.4291 248.641 45.0917 248.836 44.8811C249.03 44.6704 249.363 44.6659 249.577 44.872Z" fill="#FFE199"/>
<path d="M246.952 44.4351C247.108 44.5846 247.093 44.8564 246.918 45.0443C246.744 45.2323 246.476 45.264 246.322 45.1146C246.165 44.9651 246.181 44.6933 246.355 44.5053C246.527 44.3174 246.795 44.2857 246.952 44.4351Z" fill="#FFEAB8"/>
<path d="M257.281 54.6615C257.849 56.3012 257.473 58.2376 256.338 59.5398C255.802 60.1536 255.029 60.6496 254.229 60.5295C253.197 60.3755 252.538 59.1979 252.656 58.147C252.777 57.0962 253.489 56.2061 254.312 55.5561C255.136 54.9039 256.097 54.4283 257.114 54.1724C257.165 54.263 257.248 54.5619 257.281 54.6615Z" fill="#CA4844"/>
<path d="M256.611 55.2867C257.078 56.6343 256.769 58.2264 255.835 59.2976C255.395 59.8027 254.759 60.2103 254.102 60.1107C253.253 59.9838 252.71 59.0168 252.81 58.1517C252.911 57.2865 253.496 56.555 254.171 56.0205C254.848 55.4838 255.639 55.0942 256.474 54.8813C256.517 54.9583 256.582 55.2052 256.611 55.2867Z" fill="#FFE199"/>
<path d="M253.887 57.5608C254.291 57.4227 254.732 57.6424 254.868 58.0523C255.004 58.4622 254.787 58.9084 254.383 59.0465C253.979 59.1847 253.538 58.965 253.402 58.5551C253.264 58.1451 253.483 57.699 253.887 57.5608Z" fill="#E4B34C"/>
<path d="M255.281 55.9799C255.56 55.8848 255.86 56.0297 255.951 56.3015C256.043 56.5755 255.891 56.8745 255.612 56.9696C255.333 57.0647 255.033 56.9198 254.942 56.648C254.85 56.374 255.002 56.075 255.281 55.9799Z" fill="#E4B34C"/>
<path d="M253.666 58.1224C253.869 58.0522 254.099 58.1949 254.18 58.4394C254.26 58.684 254.162 58.9377 253.961 59.0056C253.757 59.0758 253.527 58.9332 253.447 58.6886C253.366 58.4463 253.465 58.1926 253.666 58.1224Z" fill="#FFEAB8"/>
<path d="M267.49 23.666C267.889 23.1791 267.745 22.3912 267.169 21.9061C266.593 21.421 265.802 21.4225 265.403 21.9094C265.004 22.3963 265.148 23.1842 265.724 23.6693C266.3 24.1544 267.091 24.1529 267.49 23.666Z" fill="#FFEAB8"/>
<path d="M261.857 22.5792C261.576 22.9212 261.12 23.0049 260.836 22.7671C260.552 22.5294 260.55 22.0583 260.832 21.7163C261.113 21.3743 261.569 21.2905 261.853 21.5283C262.136 21.7661 262.139 22.2372 261.857 22.5792Z" fill="#FFEAB8"/>
<path d="M259.02 71.6565C258.805 71.9169 258.322 71.8694 257.94 71.5501C257.558 71.2285 257.424 70.7574 257.639 70.4947C257.853 70.2342 258.336 70.2818 258.718 70.6011C259.1 70.9227 259.234 71.3938 259.02 71.6565Z" fill="#FFEAB8"/>
<path d="M253.4 66.5249C253.293 66.6562 253.092 66.6653 252.951 66.5475C252.81 66.4297 252.783 66.2282 252.891 66.0968C252.998 65.9655 253.199 65.9564 253.34 66.0742C253.481 66.1919 253.507 66.3958 253.4 66.5249Z" fill="#FFEAB8"/>
<path d="M214.392 22.7146C216.316 22.7146 217.875 21.9348 217.875 20.973C217.875 20.0112 216.316 19.2314 214.392 19.2314C212.468 19.2314 210.909 20.0112 210.909 20.973C210.909 21.9348 212.468 22.7146 214.392 22.7146Z" fill="white"/>
<path d="M212.65 39.2598C213.612 39.2598 214.392 38.675 214.392 37.9536C214.392 37.2322 213.612 36.6475 212.65 36.6475C211.689 36.6475 210.909 37.2322 210.909 37.9536C210.909 38.675 211.689 39.2598 212.65 39.2598Z" fill="white"/>
<path d="M216.133 57.1102C216.133 57.3497 215.744 57.5456 215.263 57.5456C214.781 57.5456 214.392 57.3514 214.392 57.1102C214.392 56.869 214.781 56.6748 215.263 56.6748C215.744 56.6748 216.133 56.8706 216.133 57.1102Z" fill="white"/>
<path d="M220.487 84.1045C220.487 84.8253 219.903 85.4107 219.181 85.4107C218.46 85.4107 217.875 84.8253 217.875 84.1045C217.875 83.3837 218.46 82.7983 219.181 82.7983C219.904 82.7983 220.487 83.3837 220.487 84.1045Z" fill="white"/>
</g>
<defs>
<linearGradient id="paint0_linear_101_204" x1="301.136" y1="-25.4359" x2="156.175" y2="166.041" gradientUnits="userSpaceOnUse">
<stop stop-color="white"/>
<stop offset="1" stop-color="white" stop-opacity="0"/>
</linearGradient>
<radialGradient id="paint1_radial_101_204" cx="0" cy="0" r="1" gradientUnits="userSpaceOnUse" gradientTransform="translate(202.689 45.5097) scale(42.2281 42.2281)">
<stop stop-color="#330902"/>
<stop offset="1" stop-color="#170300"/>
</radialGradient>
<radialGradient id="paint2_radial_101_204" cx="0" cy="0" r="1" gradientUnits="userSpaceOnUse" gradientTransform="translate(187.468 45.5317) scale(32.4644 32.4645)">
<stop stop-color="#330902"/>
<stop offset="1" stop-color="#170300"/>
</radialGradient>
</defs>
</svg>
