<svg width="340" height="358" viewBox="0 0 340 358" fill="none" xmlns="http://www.w3.org/2000/svg">
<circle opacity="0.1" cx="170" cy="188" r="170" fill="white"/>
<path d="M219.055 243.476C216.315 243.476 216.315 247.837 219.055 247.837C221.795 247.745 221.795 243.476 219.055 243.476Z" fill="#FFF1CE"/>
<path d="M57.0552 204.867C54.3149 204.867 54.3149 209.229 57.0552 209.229C59.7954 209.136 59.7954 204.867 57.0552 204.867Z" fill="#FFF1CE"/>
<path d="M286.581 288.213C285.394 288.492 284.206 289.791 283.476 290.44C282.106 291.647 280.644 292.575 279 293.41C279.548 294.245 280.827 294.709 281.74 294.895C282.745 295.081 283.658 294.895 284.663 294.709C285.12 294.617 285.577 294.431 286.033 294.245C287.403 293.41 289.778 289.976 288.043 288.584C287.586 288.213 287.038 288.12 286.581 288.213Z" fill="#7CA661"/>
<path d="M153.016 231.295H152.925C152.377 231.388 151.92 232.037 152.012 232.594C152.012 233.151 152.377 233.801 152.925 233.893H153.016C153.839 234.079 154.661 233.522 154.661 232.594C154.661 231.666 153.839 231.202 153.016 231.295Z" fill="#FFF1CE"/>
<path d="M168.658 4.63944C167.654 3.71142 167.197 2.04097 166.74 0.648926C166.009 1.39135 165.096 1.85537 164 1.94817C164.457 3.98983 165.644 5.84588 167.471 6.7739C167.562 6.12429 168.11 5.10345 168.658 4.63944Z" fill="#AEDC90"/>
<path d="M60.8496 118.506C58.3835 118.506 58.3835 122.404 60.8496 122.404C63.3158 122.404 63.3158 118.506 60.8496 118.506Z" fill="#FFF1CE"/>
<path d="M4.84964 134.762C2.38345 134.762 2.38345 138.66 4.84964 138.66C7.31583 138.66 7.31583 134.762 4.84964 134.762Z" fill="#FFF1CE"/>
<path d="M140.129 121.012L137.754 118.506C137.754 118.506 137.389 124.539 132 126.766L134.192 128.436C134.192 128.436 138.759 126.58 140.129 121.012Z" fill="#AEDC90"/>
<path d="M285.85 96.1538C283.383 96.1538 283.383 100.052 285.85 100.052C288.316 100.052 288.316 96.1538 285.85 96.1538Z" fill="#FFF1CE"/>
<path d="M48.7544 79.9027C48.1151 79.253 47.293 78.8818 46.3796 78.8818C45.4662 78.8818 44.5528 79.253 44.0047 79.9027C43.4567 80.5523 43 81.4803 43 82.3155C43 83.2436 43.3654 84.1716 44.0047 84.7284C44.6441 85.378 45.4662 85.7492 46.3796 85.7492C47.293 85.7492 48.2064 85.378 48.7544 84.7284C49.3938 84.1716 49.7592 83.1508 49.7592 82.3155C49.6678 81.4803 49.3938 80.5523 48.7544 79.9027Z" fill="#FFF1CE"/>
<path d="M195 61.6094C197.284 72.9313 203.951 82.6756 210.437 92.1414C212.994 95.8535 215.734 100.494 219.479 103.185C220.575 101.793 215.643 94.8327 214.729 93.2551C212.72 89.6358 210.619 86.1093 208.427 82.5828C204.134 75.5298 199.658 68.5696 195 61.6094Z" fill="#7CA661"/>
<path d="M210.071 85.5523C208.245 78.7777 207.24 71.7247 204.408 65.2285C212.537 76.4576 218.475 88.8932 221.58 103.092C219.388 101.978 217.744 101.236 216.282 99.1943C213.177 95.2966 211.35 90.378 210.071 85.5523Z" fill="#AEDC90"/>
<path d="M197.832 82.6753C200.389 87.3154 203.495 91.5843 207.331 95.2036C209.797 97.5237 217.927 104.484 221.489 103.185C218.84 99.287 213.268 95.1109 209.797 92.0484C205.961 88.8003 201.942 85.645 197.832 82.6753Z" fill="#AEDC90"/>
<path d="M235.007 107.175C235.19 115.528 223.589 120.261 217.104 118.033C214.273 117.105 212.446 114.878 212.903 110.98C213.359 107.175 215.095 103.463 217.926 101.05C220.849 98.6376 224.868 97.524 228.522 98.7304C232.084 99.9369 234.916 103.371 235.007 107.175Z" fill="#EA7273"/>
<path d="M235.007 107.176C235.19 115.528 223.589 120.261 217.104 118.033C217.287 117.941 217.561 117.848 217.835 117.662C220.941 116.549 223.955 116.27 226.786 114.321C230.075 112.001 232.449 107.825 231.353 103.927C230.805 101.979 229.527 100.401 228.43 98.7305C232.084 99.9369 234.916 103.371 235.007 107.176Z" fill="#EA6061"/>
<path d="M215.369 112.651C215.552 112.929 215.734 113.208 216.008 113.393C216.374 113.672 216.922 113.764 217.47 113.672C218.84 113.486 219.936 112.465 220.393 111.166C220.849 109.867 220.667 108.382 220.027 107.268C219.114 105.598 217.013 104.763 215.734 106.526C214.456 108.104 214.364 110.888 215.369 112.651Z" fill="#EA8889"/>
<path d="M222.493 103.092C222.219 102.628 221.671 102.442 221.123 102.442C220.758 102.442 220.21 102.535 219.936 102.814C219.57 103.092 219.296 103.649 219.479 104.206C219.57 104.855 219.936 105.319 220.575 105.505C221.123 105.69 221.763 105.598 222.219 105.134C222.767 104.67 222.859 103.742 222.493 103.092Z" fill="#EA8889"/>
<path d="M221.854 106.062C221.854 106.062 221.763 106.062 221.671 106.062H221.58C221.489 106.062 221.397 106.062 221.306 106.062C221.306 106.062 221.215 106.062 221.215 106.155C220.94 106.248 220.849 106.526 220.758 106.804C220.758 106.99 220.758 107.176 220.758 107.361V107.454C220.849 107.64 221.032 107.825 221.215 107.918C221.306 108.011 221.489 108.011 221.58 108.011C222.128 108.196 222.676 107.732 222.767 107.083C222.859 106.619 222.402 106.062 221.854 106.062Z" fill="#EA8889"/>
<path d="M227.517 115.435C227.7 116.27 229.161 116.177 229.892 116.363C230.897 116.641 231.536 117.662 231.536 118.683C231.536 119.611 231.079 120.539 231.536 121.281C231.993 121.931 232.997 121.931 233.728 121.838C232.997 121.838 232.267 121.189 232.084 120.446C231.901 119.704 232.267 118.869 232.358 118.126C232.541 117.012 232.267 115.713 231.536 114.878C230.714 114.043 227.7 113.115 227.426 114.971C227.517 115.249 227.517 115.342 227.517 115.435Z" fill="#EA6061"/>
<path d="M232.815 108.568C232.541 109.032 232.541 109.496 232.358 109.96C232.176 110.609 231.81 111.259 231.445 111.908C230.714 113.022 229.801 113.765 228.705 114.6C228.431 114.785 228.613 115.249 228.979 115.064C230.257 114.507 231.262 113.393 231.993 112.28C232.632 111.352 233.546 109.681 233.18 108.568C233.089 108.382 232.906 108.475 232.815 108.568Z" fill="white"/>
<path d="M232.906 104.762C232.815 104.669 232.724 104.669 232.632 104.669H232.541C232.45 104.669 232.45 104.669 232.45 104.762C232.267 105.133 232.541 105.412 232.724 105.783C232.906 106.247 232.906 106.711 232.906 107.268C232.906 107.639 233.454 107.639 233.454 107.268C233.454 106.34 233.272 105.597 232.906 104.762Z" fill="white"/>
<path d="M33.9352 230.267C32.3824 231.195 30.921 232.03 29.3682 232.958C28.4548 233.515 27.5414 233.979 26.902 234.814C26.1713 235.65 25.4406 237.134 26.628 237.877C27.8154 238.619 30.0076 237.413 31.0123 236.763C32.0171 236.114 33.0218 235.371 33.6612 234.258C34.94 232.216 33.7525 230.36 33.9352 230.267Z" fill="#7CA661"/>
<path d="M76.1511 113.279C76.6078 115.599 78.252 117.455 80.2614 118.661C82.1796 119.775 84.2804 119.961 86.4726 119.868C86.5639 119.868 86.6552 119.868 86.7466 119.868C86.7466 119.775 86.7466 119.682 86.7466 119.589C86.5639 116.62 85.5592 113.836 83.9151 111.33C82.3623 109.01 80.2614 107.154 78.1606 105.298C76.6078 107.618 75.6031 110.68 76.1511 113.279Z" fill="#AEDC90"/>
<path d="M76.1511 113.279C76.6078 115.599 78.252 117.455 80.2614 118.661C82.1796 119.775 84.2804 119.961 86.4726 119.868C86.5639 119.868 86.6552 119.868 86.7466 119.868C77.2472 114.485 78.1606 105.298 78.1606 105.298C76.6078 107.618 75.6031 110.68 76.1511 113.279Z" fill="#7CA661"/>
<path d="M78.5258 109.938C78.9825 112.165 80.2613 114.393 81.7228 116.063C83.0015 117.548 84.5543 118.94 86.3811 119.868C86.4725 119.868 86.5638 119.868 86.6552 119.868C86.6552 119.775 86.6552 119.682 86.6552 119.59C84.9197 118.569 83.2756 117.455 81.9968 115.785C81.2661 114.857 80.6267 113.929 80.0786 112.908C79.5306 111.887 79.2566 110.866 78.8912 109.845C78.7999 109.66 78.5258 109.753 78.5258 109.938Z" fill="#39700B"/>
<path d="M256.595 60.4464C256.139 62.7664 254.495 64.6225 252.485 65.8289C250.567 66.9426 248.466 67.1281 246.274 67.0353C246.183 67.0353 246.091 67.0353 246 67.0353C246 66.9425 246 66.8497 246 66.7569C246.183 63.7873 247.187 61.0032 248.832 58.4975C250.384 56.1774 252.485 54.3214 254.586 52.4653C256.139 54.7854 257.143 57.8479 256.595 60.4464Z" fill="#AEDC90"/>
<path d="M256.595 60.4464C256.139 62.7664 254.495 64.6225 252.485 65.8289C250.567 66.9426 248.466 67.1281 246.274 67.0353C246.183 67.0353 246.091 67.0353 246 67.0353C255.499 61.6528 254.586 52.4653 254.586 52.4653C256.139 54.7854 257.143 57.8479 256.595 60.4464Z" fill="#7CA661"/>
<path d="M254.221 57.1056C253.764 59.3329 252.485 61.5601 251.024 63.2306C249.745 64.7154 248.192 66.1074 246.365 67.0355C246.274 67.0355 246.183 67.0355 246.091 67.0355C246.091 66.9427 246.091 66.8499 246.091 66.7571C247.827 65.7362 249.471 64.6226 250.75 62.9522C251.481 62.0241 252.12 61.0961 252.668 60.0753C253.216 59.0544 253.49 58.0336 253.855 57.0128C253.947 56.8272 254.221 56.92 254.221 57.1056Z" fill="#39700B"/>
<path d="M85.4 233.779H76.4V275.537H85.4V233.779Z" fill="#D2953D"/>
<path d="M82.5 233.779H76.4V275.537H82.5V233.779Z" fill="#EDC75E"/>
<path d="M93.1 238.352H84.1V280.11H93.1V238.352Z" fill="#D2953D"/>
<path d="M90.2 238.352H84.1V280.11H90.2V238.352Z" fill="#EDC75E"/>
<path d="M105.43 234.825L96.5536 233.315L89.768 274.501L98.6447 276.011L105.43 234.825Z" fill="#D2953D"/>
<path d="M102.544 234.379L96.528 233.356L89.7423 274.542L95.7588 275.565L102.544 234.379Z" fill="#EDC75E"/>
<path d="M108.856 239.587L99.8577 239.786L100.75 281.535L109.748 281.337L108.856 239.587Z" fill="#D2953D"/>
<path d="M105.955 239.619L99.8567 239.753L100.749 281.503L106.847 281.369L105.955 239.619Z" fill="#EDC75E"/>
<path d="M117.455 235.523L108.457 235.722L109.35 277.471L118.348 277.273L117.455 235.523Z" fill="#D2953D"/>
<path d="M114.555 235.554L108.456 235.689L109.349 277.439L115.448 277.304L114.555 235.554Z" fill="#EDC75E"/>
<path d="M126.61 242.597L117.659 241.647L113.392 283.18L122.344 284.129L126.61 242.597Z" fill="#D2953D"/>
<path d="M123.709 242.344L117.642 241.701L113.376 283.233L119.443 283.877L123.709 242.344Z" fill="#EDC75E"/>
<path d="M118.6 262.939C118.6 266.19 110.2 268.832 99.9 268.832C89.6 268.832 81.2 266.19 81.2 262.939H74L78.2 319.023H121.7L125.9 262.939H118.6Z" fill="#DB5955"/>
<path d="M220.9 304.29C221.6 301.039 221.9 297.686 221.9 294.232C221.9 267.714 204.9 249.426 178.8 249.426C152.7 249.426 121.2 267.714 121.2 294.232C121.2 297.686 110.6 301.039 111.3 304.29H220.9Z" fill="#935A40"/>
<path d="M238.6 287.221C239.9 286.713 240.8 285.393 240.8 283.869C240.8 281.837 239.2 280.211 237.2 280.211C235.2 280.211 233.6 281.837 233.6 283.869C233.6 283.97 233.6 284.072 233.7 284.173H201.9V290.168H233.7C233.7 290.269 233.6 290.371 233.6 290.473C233.6 292.505 235.2 294.13 237.2 294.13C239.2 294.13 240.8 292.505 240.8 290.473C240.8 289.05 239.9 287.831 238.6 287.221Z" fill="white"/>
<path d="M225.1 287.222C225.1 295.553 210.1 302.36 201.9 302.36C193.7 302.36 187 295.553 187 287.222C187 278.89 193.7 272.083 201.9 272.083C210.1 272.083 225.1 278.89 225.1 287.222Z" fill="#BC7253"/>
<path d="M141.3 280.312C141.3 280.312 130.9 285.596 133 292.301C134.4 296.772 166.4 294.638 167.8 290.269C169.2 286.002 141.6 284.986 141.6 284.986L141.3 280.312Z" fill="#BC7253"/>
<path d="M126.8 308.354C130.556 308.354 133.6 305.261 133.6 301.445C133.6 297.63 130.556 294.537 126.8 294.537C123.044 294.537 120 297.63 120 301.445C120 305.261 123.044 308.354 126.8 308.354Z" fill="#DB5955"/>
<path d="M125.2 303.579C127.464 303.579 129.3 301.714 129.3 299.414C129.3 297.113 127.464 295.248 125.2 295.248C122.936 295.248 121.1 297.113 121.1 299.414C121.1 301.714 122.936 303.579 125.2 303.579Z" fill="#DD7260"/>
<path d="M142 302.36C142 305.611 139.4 308.354 136.1 308.354C132.8 308.354 130.2 305.713 130.2 302.36C130.2 299.108 132.8 296.365 136.1 296.365C139.4 296.365 142 299.108 142 302.36Z" fill="#D2953D"/>
<path d="M134.8 304.696C136.678 304.696 138.2 303.15 138.2 301.242C138.2 299.334 136.678 297.788 134.8 297.788C132.922 297.788 131.4 299.334 131.4 301.242C131.4 303.15 132.922 304.696 134.8 304.696Z" fill="#EDC75E"/>
<path d="M148.8 308.354C152.556 308.354 155.6 305.261 155.6 301.445C155.6 297.63 152.556 294.537 148.8 294.537C145.044 294.537 142 297.63 142 301.445C142 305.261 145.044 308.354 148.8 308.354Z" fill="#DB5955"/>
<path d="M147.2 303.579C149.464 303.579 151.3 301.714 151.3 299.414C151.3 297.113 149.464 295.248 147.2 295.248C144.936 295.248 143.1 297.113 143.1 299.414C143.1 301.714 144.936 303.579 147.2 303.579Z" fill="#DD7260"/>
<path d="M158.1 308.354C161.358 308.354 164 305.67 164 302.36C164 299.049 161.358 296.365 158.1 296.365C154.841 296.365 152.2 299.049 152.2 302.36C152.2 305.67 154.841 308.354 158.1 308.354Z" fill="#D2953D"/>
<path d="M156.8 304.696C158.678 304.696 160.2 303.15 160.2 301.242C160.2 299.334 158.678 297.788 156.8 297.788C154.922 297.788 153.4 299.334 153.4 301.242C153.4 303.15 154.922 304.696 156.8 304.696Z" fill="#EDC75E"/>
<path d="M170.8 308.354C174.556 308.354 177.6 305.261 177.6 301.445C177.6 297.63 174.556 294.537 170.8 294.537C167.044 294.537 164 297.63 164 301.445C164 305.261 167.044 308.354 170.8 308.354Z" fill="#DB5955"/>
<path d="M169.1 303.579C171.364 303.579 173.2 301.714 173.2 299.414C173.2 297.113 171.364 295.248 169.1 295.248C166.836 295.248 165 297.113 165 299.414C165 301.714 166.836 303.579 169.1 303.579Z" fill="#DD7260"/>
<path d="M180.1 308.354C183.358 308.354 186 305.67 186 302.36C186 299.049 183.358 296.365 180.1 296.365C176.841 296.365 174.2 299.049 174.2 302.36C174.2 305.67 176.841 308.354 180.1 308.354Z" fill="#D2953D"/>
<path d="M178.7 304.696C180.578 304.696 182.1 303.15 182.1 301.242C182.1 299.334 180.578 297.788 178.7 297.788C176.822 297.788 175.3 299.334 175.3 301.242C175.3 303.15 176.822 304.696 178.7 304.696Z" fill="#EDC75E"/>
<path d="M192.8 308.354C196.556 308.354 199.6 305.261 199.6 301.445C199.6 297.63 196.556 294.537 192.8 294.537C189.044 294.537 186 297.63 186 301.445C186 305.261 189.044 308.354 192.8 308.354Z" fill="#DB5955"/>
<path d="M191.1 303.579C193.364 303.579 195.2 301.714 195.2 299.414C195.2 297.113 193.364 295.248 191.1 295.248C188.836 295.248 187 297.113 187 299.414C187 301.714 188.836 303.579 191.1 303.579Z" fill="#DD7260"/>
<path d="M207.9 302.36C207.9 305.611 205.3 308.354 202 308.354C198.8 308.354 196.1 305.713 196.1 302.36C196.1 299.108 198.7 296.365 202 296.365C205.3 296.467 207.9 299.108 207.9 302.36Z" fill="#D2953D"/>
<path d="M200.7 304.696C202.578 304.696 204.1 303.15 204.1 301.242C204.1 299.334 202.578 297.788 200.7 297.788C198.822 297.788 197.3 299.334 197.3 301.242C197.3 303.15 198.822 304.696 200.7 304.696Z" fill="#EDC75E"/>
<path d="M214.7 308.354C218.456 308.354 221.5 305.261 221.5 301.445C221.5 297.63 218.456 294.537 214.7 294.537C210.944 294.537 207.9 297.63 207.9 301.445C207.9 305.261 210.944 308.354 214.7 308.354Z" fill="#DB5955"/>
<path d="M213.1 303.579C215.364 303.579 217.2 301.714 217.2 299.414C217.2 297.113 215.364 295.248 213.1 295.248C210.836 295.248 209 297.113 209 299.414C209 301.714 210.836 303.579 213.1 303.579Z" fill="#DD7260"/>
<path d="M224 308.354C227.258 308.354 229.9 305.67 229.9 302.36C229.9 299.049 227.258 296.365 224 296.365C220.742 296.365 218.1 299.049 218.1 302.36C218.1 305.67 220.742 308.354 224 308.354Z" fill="#D2953D"/>
<path d="M222.7 304.696C224.578 304.696 226.1 303.15 226.1 301.242C226.1 299.334 224.578 297.788 222.7 297.788C220.822 297.788 219.3 299.334 219.3 301.242C219.3 303.15 220.822 304.696 222.7 304.696Z" fill="#EDC75E"/>
<path d="M228 319.327H111.1C103 319.327 96.4 312.622 96.4 304.392H242.7C242.7 312.622 236.1 319.327 228 319.327Z" fill="white"/>
<path d="M85.7118 182.102C76.8435 180.211 70.0513 177.431 61.9857 172.391C54.6278 167.75 53.7529 159.24 60.2089 153.513C60.2456 153.42 60.3753 153.364 60.3753 153.364C61.2077 152.618 62.2654 152.399 63.3256 152.724C75.3771 156.135 86.8214 160.818 97.8448 166.851C98.8316 167.364 99.4119 168.362 99.5467 169.396C99.51 169.489 99.5663 169.621 99.5663 169.621C100.591 178.3 94.1713 183.934 85.7118 182.102Z" fill="#EADFD1"/>
<path d="M99.7557 169.644C99.7924 169.55 99.7361 169.419 99.7361 169.419C99.6382 168.295 99.0217 167.392 98.0359 166.881C87.0235 160.862 75.5906 156.189 63.5512 152.787C63.2723 152.673 62.8639 152.614 62.5116 152.687C62.475 152.781 62.475 152.781 62.4383 152.874C62.2036 154.296 62.1181 155.888 62.2553 157.462C62.2969 158.455 62.8205 159.319 63.5837 159.848C75.0512 168.005 82.952 171.234 96.3023 173.22C97.2122 173.375 98.083 173.081 98.7849 172.392C99.1175 172.094 99.4868 171.703 99.8195 171.405C99.8536 170.768 99.7582 170.187 99.7557 169.644Z" fill="#D1C3B4"/>
<path d="M69.3453 146.53C65.8111 145.084 61.8294 147.256 61.3084 151.061C61.0736 152.486 60.9881 154.079 61.1253 155.656C61.167 156.65 61.6908 157.516 62.4545 158.046C73.9287 166.215 81.8341 169.449 95.1922 171.438C96.1027 171.593 96.9739 171.298 97.6762 170.608C99.6732 168.819 101.112 166.801 102.086 164.593C103.06 162.385 101.941 161.385 99.7579 158.971L69.3453 146.53Z" fill="#DB5955"/>
<path d="M99.7648 158.955C99.7648 158.955 94.9023 155.121 84.7689 151.519C80.976 150.185 69.4503 146.557 69.4503 146.557C64.3751 144.915 62.3247 147.116 61.4686 150.674C61.2534 152.323 61.6892 154.238 63.0302 155.22C75.2147 164.871 83.5908 165.8 98.3023 167.909C99.0266 167.989 100.509 167.509 101.026 166.744C101.412 166.033 101.799 165.323 102.185 164.613C103.066 162.368 101.852 160.786 99.7648 158.955Z" fill="#E18668"/>
<path d="M65.2896 160.026L64.1889 156.191C65.5674 151.843 71.3171 148.52 73.1419 147.739C72.2637 147.489 71.4224 147.144 70.8247 147.009C63.3806 151.057 62.821 154.976 62.7841 155.07L63.3239 158.675C63.9045 159.131 64.6155 159.532 65.2896 160.026Z" fill="#F7E4D8"/>
<path d="M99.754 158.881C99.754 158.881 99.6603 158.843 99.5099 158.672C94.2451 164.058 93.8296 167.057 93.7557 167.245L94.654 171.328C94.8413 171.404 94.9719 171.348 95.1592 171.425C95.5708 171.484 96.0193 171.449 96.3742 171.376L95.5326 167.426C96.3056 164.901 98.6854 162.159 100.844 159.982C100.486 159.508 100.185 159.167 99.754 158.881Z" fill="#F7E4D8"/>
<path d="M79.366 167.505L78.5453 163.783C80.0551 159.378 86.2285 154.151 87.9952 152.69C87.1533 152.346 86.3115 152.001 85.4328 151.751C76.917 159.076 76.2833 163.185 76.2464 163.279L76.7101 166.527C77.5519 166.871 78.4873 167.254 79.366 167.505Z" fill="#F7E4D8"/>
<path d="M70.6361 160.341C72.0535 156.447 78.2234 151.77 81.107 150.222C80.1357 149.934 79.071 149.607 78.0431 149.186C68.7633 154.881 68.3908 158.876 68.2236 159.026L68.6303 162.14C69.5845 162.749 70.4821 163.225 71.3428 163.796L70.6361 160.341Z" fill="#F7E4D8"/>
<path d="M87.1595 165.981C88.3746 162.327 92.7065 158.202 95.3106 155.991C94.599 155.591 93.8873 155.19 93.0452 154.846C85.3462 161.743 84.8796 165.703 84.8058 165.891L85.5702 169.481C86.3556 169.693 87.2346 169.943 88.1506 170.1L87.1595 165.981Z" fill="#F7E4D8"/>
<path d="M60.7745 178.958C51.9061 177.067 45.1139 174.287 37.0483 169.247C29.6904 164.606 28.8155 156.096 35.2715 150.369C35.3082 150.276 35.4379 150.22 35.4379 150.22C36.2703 149.474 37.328 149.255 38.3882 149.58C50.4397 152.99 61.8841 157.674 72.9074 163.707C73.8942 164.22 74.4745 165.218 74.6093 166.252C74.5726 166.345 74.6289 166.477 74.6289 166.477C75.6532 175.156 69.2339 180.789 60.7745 178.958Z" fill="#EADFD1"/>
<path d="M74.8183 166.5C74.855 166.406 74.7987 166.275 74.7987 166.275C74.7008 165.151 74.0843 164.248 73.0985 163.737C62.0862 157.718 50.6532 153.045 38.6138 149.643C38.335 149.529 37.9265 149.47 37.5743 149.543C37.5376 149.637 37.5376 149.637 37.5009 149.73C37.2662 151.152 37.1808 152.744 37.3179 154.318C37.3596 155.311 37.8831 156.175 38.6463 156.704C50.1138 164.861 58.0146 168.09 71.3649 170.076C72.2748 170.231 73.1456 169.937 73.8475 169.248C74.1801 168.95 74.5495 168.559 74.8821 168.261C74.8233 167.586 74.8208 167.043 74.8183 166.5Z" fill="#D1C3B4"/>
<path d="M44.4079 143.386C40.8737 141.94 36.892 144.112 36.371 147.917C36.1362 149.341 36.0507 150.935 36.1879 152.512C36.2296 153.506 36.7534 154.372 37.5171 154.902C48.9913 163.071 56.8967 166.305 70.2548 168.294C71.1653 168.449 72.0365 168.154 72.7389 167.464C74.7358 165.675 76.1747 163.657 77.1485 161.449C78.1224 159.241 77.0038 158.241 74.8205 155.827L44.4079 143.386Z" fill="#DB5955"/>
<path d="M74.8274 155.811C74.8274 155.811 69.9649 151.977 59.8316 148.375C56.0386 147.041 44.5129 143.413 44.5129 143.413C39.4377 141.771 37.3873 143.972 36.5312 147.53C36.316 149.179 36.7518 151.094 38.0928 152.076C50.2773 161.727 58.6534 162.656 73.365 164.765C74.0893 164.845 75.5721 164.365 76.0883 163.6C76.4749 162.889 76.8615 162.179 77.248 161.469C78.1287 159.224 76.9149 157.642 74.8274 155.811Z" fill="#E18668"/>
<path d="M40.3521 156.882L39.2514 153.047C40.6299 148.699 46.3796 145.376 48.2044 144.595C47.3262 144.345 46.4849 144 45.8872 143.865C38.4431 147.913 37.8835 151.832 37.8466 151.926L38.3864 155.531C38.967 155.987 39.678 156.388 40.3521 156.882Z" fill="#F7E4D8"/>
<path d="M74.8165 155.737C74.8165 155.737 74.7228 155.699 74.5724 155.528C69.3076 160.914 68.8921 163.913 68.8182 164.101L69.7165 168.184C69.9038 168.26 70.0344 168.204 70.2218 168.281C70.6333 168.34 71.0819 168.305 71.4367 168.232L70.5951 164.282C71.3681 161.757 73.7479 159.015 75.9061 156.838C75.5486 156.364 75.2478 156.023 74.8165 155.737Z" fill="#F7E4D8"/>
<path d="M54.4285 164.361L53.6078 160.639C55.1176 156.234 61.291 151.007 63.0577 149.546C62.2159 149.202 61.374 148.857 60.4953 148.607C51.9795 155.932 51.3458 160.041 51.3089 160.135L51.7726 163.383C52.6144 163.727 53.4563 164.072 54.4285 164.361Z" fill="#F7E4D8"/>
<path d="M45.6986 157.197C47.116 153.303 53.2859 148.626 56.1695 147.078C55.1982 146.79 54.1335 146.463 53.1056 146.042C43.8258 151.737 43.4533 155.732 43.2861 155.882L43.6928 158.996C44.647 159.605 45.5446 160.081 46.4053 160.652L45.6986 157.197Z" fill="#F7E4D8"/>
<path d="M62.2221 162.837C63.4372 159.183 67.769 155.058 70.3731 152.847C69.6615 152.447 68.9498 152.046 68.1077 151.702C60.4087 158.599 59.9421 162.559 59.8683 162.747L60.6327 166.337C61.4181 166.549 62.2971 166.799 63.2131 166.956L62.2221 162.837Z" fill="#F7E4D8"/>
<path d="M105.314 162.813L96.597 185.066C95.7143 187.319 101.224 191.755 108.867 194.886C116.511 198.016 123.454 198.79 124.374 196.443L133.091 174.191L105.314 162.813Z" fill="#332C5E"/>
<path d="M100.214 190.221C101.323 191.001 102.525 191.821 103.99 192.528L114.246 166.425L110.211 164.778L100.214 190.221Z" fill="#474C52"/>
<path d="M116.983 174.248C124.228 177.213 131.12 177.018 132.377 173.811C133.634 170.605 128.78 165.602 121.535 162.637C114.29 159.672 107.398 159.867 106.141 163.074C104.884 166.28 109.738 171.283 116.983 174.248Z" fill="#F2F8FB"/>
<path d="M118.562 170.22C121.438 171.396 124.082 171.554 124.467 170.572C124.852 169.591 122.832 167.841 119.956 166.665C117.08 165.488 114.436 165.33 114.051 166.312C113.666 167.294 115.686 169.043 118.562 170.22Z" fill="#DD7260"/>
<path d="M121.02 163.949C128.464 166.995 132.182 171.559 131.448 173.432C130.751 175.21 124.941 175.983 117.498 172.936C110.054 169.889 106.336 165.325 107.07 163.453C107.804 161.58 113.577 160.902 121.02 163.949ZM121.681 162.263C114.051 159.14 106.753 159.303 105.395 162.767C104.037 166.231 109.207 171.498 116.837 174.621C124.467 177.744 131.765 177.581 133.123 174.117C134.481 170.653 129.404 165.425 121.681 162.263Z" fill="#332C5E"/>
<path d="M124.559 199.368C116.758 202.723 106.656 196.518 106.656 196.518C106.656 196.518 109.164 184.89 116.965 181.535C124.766 178.18 134.868 184.384 134.868 184.384C134.868 184.384 132.36 196.013 124.559 199.368Z" fill="#579485"/>
<path d="M86.2054 162.917L77.4888 185.169C76.6061 187.423 82.1157 191.859 89.759 194.989C97.4024 198.12 104.346 198.894 105.266 196.547L113.982 174.294L86.2054 162.917Z" fill="#332C5E"/>
<path d="M113.362 173.953C112.114 177.136 105.225 177.36 97.9676 174.39C90.7107 171.42 85.8772 166.399 87.1253 163.215C88.3735 160.032 95.2628 159.808 102.52 162.778C109.777 165.748 114.61 170.769 113.362 173.953Z" fill="#F2F8FB"/>
<path d="M105.451 170.714C105.084 171.65 102.429 171.541 99.5464 170.361C96.6636 169.182 94.6689 167.389 95.0358 166.454C95.4395 165.425 98.0579 165.627 100.941 166.806C103.731 167.948 105.818 169.779 105.451 170.714Z" fill="#DD7260"/>
<path d="M101.875 164.147C109.319 167.194 113.037 171.758 112.303 173.63C111.569 175.502 105.796 176.181 98.3522 173.134C90.9085 170.087 87.1906 165.523 87.9245 163.651C88.6584 161.779 94.4312 161.1 101.875 164.147ZM102.535 162.462C94.9056 159.338 87.6074 159.502 86.2497 162.966C84.8919 166.429 90.0619 171.696 97.6917 174.819C105.321 177.943 112.62 177.779 113.977 174.315C115.335 170.852 110.258 165.623 102.535 162.462Z" fill="#332C5E"/>
<path d="M109.471 209.512L33.6759 178.594C25.5948 175.297 21.6114 165.967 24.8113 157.832L130.051 200.761C126.722 208.953 117.552 212.808 109.471 209.512Z" fill="white"/>
<path d="M290.62 156.902C290.62 156.902 291.354 149.853 287.248 148.862C283.238 147.939 277.534 147.142 279.345 145.629C281.156 144.117 279.94 142.449 279.94 142.449L283.615 143.943C283.615 143.943 277.775 138.641 278.416 137.846C279.058 137.05 280.016 137.139 280.016 137.139C280.016 137.139 279.246 135.052 279.291 134.275C279.335 133.499 282.759 135.036 282.759 135.036L282.722 133.761L285.194 137.345L286.127 136.755C286.127 136.755 290.042 140.77 289.815 145.679C289.815 145.679 292.455 141.373 286.648 134.699C286.648 134.699 284.165 130.519 285.196 129.484L286.708 129.818L286.235 126.398C286.235 126.398 287.468 127.122 288.655 129.136C289.842 131.15 291.3 131.152 291.3 131.152C291.3 131.152 286.481 123.706 286.642 121.542L288.418 121.915C288.418 121.915 287.15 119.403 287.683 117.943L289.566 119.493C289.566 119.493 289.853 117.051 290.632 116.573L292.278 118.251C292.278 118.251 292.809 113.63 293.661 112.541C293.661 112.541 295.733 115.255 295.353 116.603L296.982 115.549L297.527 118.359L300.049 115.953C300.049 115.953 300.396 119.652 299.419 121.018L301.507 119.628C301.507 119.628 300.362 128.885 296.645 131.328C296.645 131.328 298.78 132.322 301.928 125.877C301.928 125.877 303.973 124.751 303.184 127.794C302.479 130.822 304.263 129.143 304.263 129.143C304.263 129.143 303.751 135.982 299.489 139.29C295.228 142.597 295.284 146.091 295.284 146.091C295.284 146.091 298.268 142.835 299.844 140.936C301.42 139.038 302.737 136.074 302.737 136.074L303.858 137.159L306.397 133.811C306.397 133.811 307.454 133.455 307.043 135.663C307.043 135.663 309.986 135.832 309.441 136.696C308.897 137.561 306.599 139.244 306.599 139.244L308.511 140.447C308.511 140.447 306.524 144.554 302.729 145.473L305.961 146.361L304.984 147.728C304.984 147.728 306.685 149.737 305.322 150.317C303.875 150.912 298.01 148.605 296.044 150.742C294.148 152.782 291.242 157.562 291.242 157.562L290.62 156.902Z" fill="#497C74"/>
<path d="M285.021 169.818C285.021 169.818 280.485 166.686 278.173 169.308C275.944 171.917 273.156 175.818 272.678 173.938C272.283 172.045 270.535 172.35 270.535 172.35L273.011 170.211C273.011 170.211 266.803 172.576 266.501 171.775C266.199 170.974 266.604 170.306 266.604 170.306C266.604 170.306 264.774 170.114 264.207 169.786C263.64 169.459 266.143 167.485 266.143 167.485L265.216 167.05L268.823 166.59L268.757 165.663C268.757 165.663 273.324 164.267 276.812 166.218C276.812 166.218 274.606 162.678 267.444 164.442C267.444 164.442 263.38 164.725 263.01 163.51L263.874 162.506L261.146 161.532C261.146 161.532 262.16 160.928 264.102 160.759C266.044 160.59 266.644 159.547 266.644 159.547C266.644 159.547 259.236 160.329 257.714 159.4L258.717 158.201C258.717 158.201 256.318 158.194 255.49 157.314L257.337 156.565C257.337 156.565 255.608 155.416 255.583 154.738L257.457 154.155C257.457 154.155 254.206 152.077 253.78 151.042C253.78 151.042 256.527 150.562 257.412 151.261L257.321 149.655L259.648 150.273L258.771 147.524C258.771 147.524 261.693 148.635 262.313 149.807L262.057 147.718C262.057 147.718 268.406 151.985 268.836 155.665C268.836 155.665 270.352 154.461 266.847 149.783C266.847 149.783 266.799 147.914 268.776 149.531C270.669 151.163 270.178 149.201 270.178 149.201C270.178 149.201 275.02 152.109 275.822 156.492C276.624 160.875 279.226 162.127 279.226 162.127C279.226 162.127 277.977 158.675 277.166 156.854C276.438 155.019 274.726 152.929 274.726 152.929L275.934 152.461L274.393 149.317C274.393 149.317 274.507 148.444 276.056 149.539C276.056 149.539 277.34 147.437 277.795 148.125C278.25 148.814 278.546 151.152 278.546 151.152L280.186 150.182C280.186 150.182 282.476 153.195 281.619 156.332L283.596 154.28L284.229 155.535C284.229 155.535 286.366 154.99 286.32 156.279C286.274 157.567 282.225 161.09 283.007 163.258C283.79 165.425 285.608 168.692 285.608 168.692L285.021 169.818Z" fill="#497C74"/>
<path d="M290.578 174.024C290.578 174.024 294.946 170.36 293.112 167.523C291.279 164.687 288.353 160.932 290.253 161.026C292.152 161.121 292.38 159.375 292.38 159.375L293.728 162.382C293.728 162.382 293.253 155.809 294.099 155.747C294.945 155.684 295.456 156.192 295.456 156.192C295.456 156.192 296.198 154.441 296.643 154.022C297.088 153.603 298.242 156.473 298.242 156.473L298.966 155.664L298.357 159.269L299.243 159.455C299.243 159.455 299.24 164.149 296.359 166.956C296.359 166.956 300.37 165.828 300.786 158.418C300.786 158.418 301.675 154.423 302.964 154.453L303.653 155.527L305.326 153.187C305.326 153.187 305.599 154.334 305.134 156.207C304.67 158.08 305.498 158.959 305.498 158.959C305.498 158.959 306.871 151.637 308.22 150.463L309.033 151.771C309.033 151.771 309.693 149.523 310.874 148.89L311.116 150.895C311.116 150.895 312.688 149.511 313.409 149.727L313.471 151.678C313.471 151.678 316.392 149.12 317.571 148.999C317.571 148.999 317.255 151.785 316.255 152.472L317.848 152.791L316.551 154.809L319.449 154.729C319.449 154.729 317.54 157.196 316.222 157.512L318.245 157.841C318.245 157.841 312.292 162.806 308.675 162.158C308.675 162.158 309.403 163.994 314.958 161.828C314.958 161.828 316.828 162.27 314.66 163.672C312.491 165.075 314.557 165.141 314.557 165.141C314.557 165.141 310.313 169.04 305.865 168.537C301.429 168.118 299.48 170.336 299.48 170.336C299.48 170.336 303.114 170.042 305.125 169.776C307.137 169.509 309.622 168.478 309.622 168.478L309.742 169.737L313.156 169.14C313.156 169.14 313.986 169.507 312.457 170.628C312.457 170.628 314.127 172.469 313.295 172.614C312.476 172.843 310.203 172.557 310.203 172.557L310.681 174.436C310.681 174.436 307.141 175.823 304.388 174.171L305.807 176.568L304.488 176.884C304.488 176.884 304.425 179.113 303.151 178.653C301.974 178.262 299.732 173.449 297.36 173.607C294.988 173.766 291.463 174.723 291.463 174.723L290.578 174.024Z" fill="#497C74"/>
<path d="M313.829 157.746C313.259 157.931 312.619 158.214 311.966 158.413C311.077 158.739 310.09 158.997 309.187 159.24C310.999 157.216 312.811 155.191 314.526 153.098C312.923 154.83 311.237 156.576 309.538 158.24C309.72 157.781 309.819 157.336 309.988 156.795C310.228 155.642 310.385 154.505 310.375 153.396C310.218 154.534 310.061 155.671 309.641 156.77C309.303 157.854 308.8 158.967 308.061 159.693L307.782 160.084C307.699 160.098 307.713 160.181 307.629 160.196C305.846 161.874 304.064 163.552 302.267 165.147C302.323 164.967 302.38 164.786 302.436 164.605C302.661 163.883 302.802 163.175 302.86 162.481C303.06 161.08 303.162 159.61 303.265 158.14C303.079 159.625 302.879 161.026 302.597 162.442C302.455 163.15 302.23 163.873 301.992 164.512C301.74 165.069 301.502 165.708 301.139 166.113C300.916 166.323 300.694 166.533 300.387 166.757C298.508 168.367 296.518 169.825 294.514 171.2C294.696 170.741 294.781 170.214 294.963 169.755C295.217 168.685 295.401 167.714 295.572 166.659C295.829 164.564 296.087 162.469 296.178 160.404C296.004 162.484 295.663 164.593 295.308 166.62C295.138 167.674 294.87 168.661 294.603 169.647C294.378 170.369 294.153 171.092 293.832 171.746C293.442 171.985 293.066 172.307 292.677 172.546C291.272 173.389 289.95 174.218 288.545 175.061L286.278 176.397C286.671 175.133 287.078 173.951 287.471 172.687C289.27 166.906 290.791 161.003 292.145 155.13C292.287 154.422 292.442 153.797 292.666 153.074C294.742 151.089 296.734 149.118 298.796 147.049C299.827 146.015 300.844 144.898 301.875 143.864C302.892 142.746 303.826 141.644 304.65 140.389C303.813 141.561 302.712 142.692 301.681 143.727C300.65 144.761 299.536 145.81 298.505 146.844C296.639 148.537 294.773 150.229 292.907 151.922C293.275 149.979 293.573 148.133 293.858 146.204C294.03 144.637 294.203 143.069 294.375 141.502C295.866 140.131 297.162 138.623 298.361 137.047C299.631 135.373 300.79 133.548 301.491 131.546C300.693 133.48 299.437 135.236 298.071 136.842C296.914 138.154 295.743 139.384 294.393 140.559C294.466 139.436 294.54 138.313 294.614 137.19C294.761 134.943 294.811 132.628 294.875 130.397L295.014 130.201C295.728 128.796 296.357 127.404 297.07 125.999C297.379 125.262 297.7 124.608 298.008 123.87C298.316 123.133 298.541 122.411 298.766 121.688C298.541 122.411 298.233 123.148 297.828 123.816C297.506 124.471 297.115 125.222 296.71 125.891C296.109 126.935 295.509 127.98 294.908 129.024C294.908 129.024 294.908 129.024 294.894 128.941C294.854 128.692 294.896 128.428 294.856 128.179C294.881 125.186 294.725 122.138 294.487 119.105C294.532 122.001 294.493 124.912 294.454 127.822C294.179 127.187 293.918 126.635 293.559 126.015C292.855 124.856 291.985 123.727 291.045 122.696C291.902 123.742 292.619 124.983 293.239 126.156C293.514 126.791 293.79 127.426 293.968 127.993C294.16 128.643 294.268 129.307 294.197 129.917L294.247 131.275C294.142 133.258 294.024 135.157 293.92 137.14C293.805 138.014 293.774 138.874 293.66 139.748C293.523 139.43 293.399 139.196 293.261 138.878C292.875 138.091 292.323 137.334 291.868 136.645C290.86 135.198 289.782 133.849 288.635 132.597C289.712 133.946 290.72 135.393 291.561 136.869C292.03 137.641 292.402 138.345 292.788 139.131C293.09 139.933 293.393 140.734 293.348 141.51L293.401 142.355C293.271 143.659 293.044 144.894 292.914 146.198C292.602 147.961 292.29 149.724 291.978 151.486C291.703 150.851 291.345 150.231 290.986 149.61C290.38 148.52 289.606 147.46 288.93 146.468C287.48 144.415 285.878 142.474 284.275 140.534C285.794 142.489 287.327 144.527 288.61 146.609C289.3 147.684 289.907 148.774 290.513 149.863C291.009 150.802 291.436 151.837 291.696 152.902C291.554 153.61 291.343 154.416 291.118 155.138C289.822 160.319 288.332 165.362 286.758 170.42C286.274 170.077 285.873 169.721 285.458 169.281C284.656 168.567 283.867 167.936 283.078 167.305C282.462 165.107 281.749 162.84 281.049 160.656C280.692 159.523 280.239 158.321 279.882 157.187C279.442 156.069 278.989 154.867 278.396 153.86C278.919 154.964 279.359 156.083 279.729 157.3C280.086 158.433 280.456 159.649 280.729 160.797C281.305 162.747 281.811 164.793 282.303 166.757C281.32 165.989 280.254 165.236 279.202 164.566C277.846 163.607 276.503 162.732 275.076 161.871C274.652 160.322 274.047 158.72 273.303 157.312C272.532 155.739 271.607 154.278 270.446 152.943C271.524 154.292 272.379 155.851 273.067 157.439C273.617 158.709 274.014 160.092 274.412 161.474C273.83 161.064 273.179 160.75 272.598 160.339C270.797 159.288 268.914 158.25 266.96 157.31L266.947 157.227C266.173 156.167 265.414 155.189 264.64 154.129C264.212 153.606 263.797 153.166 263.369 152.643C262.954 152.203 262.526 151.68 262.028 151.254C262.526 151.68 262.871 152.217 263.299 152.74C263.644 153.278 264.073 153.801 264.418 154.338C264.97 155.096 265.452 155.951 265.921 156.723C265.838 156.738 265.825 156.655 265.741 156.669C263.414 155.539 261.003 154.423 258.619 153.473C260.683 154.564 262.83 155.641 264.894 156.732C264.381 156.736 263.951 156.726 263.437 156.73C262.257 156.851 261.174 157.041 260.021 157.328C261.187 157.124 262.284 157.017 263.394 156.994C264.505 156.971 265.642 157.114 266.584 157.632L266.945 157.74C268.731 158.709 270.532 159.761 272.332 160.813C272.72 161.087 273.107 161.361 273.481 161.552C273.218 161.512 273.051 161.541 272.801 161.585C272.038 161.633 271.357 161.667 270.607 161.798C269.191 162.045 267.691 162.307 266.301 162.721C267.718 162.473 269.135 162.226 270.578 162.144C271.342 162.096 272.022 162.063 272.716 162.112C273.41 162.162 274.187 162.197 274.671 162.539L274.948 162.662C276.195 163.469 277.441 164.276 278.617 165.181C279.503 165.88 280.388 166.579 281.274 167.279C280.747 167.2 280.163 167.302 279.567 167.321C278.553 167.413 277.456 167.519 276.456 167.694C274.373 168.058 272.29 168.422 270.234 168.952C272.303 168.505 274.4 168.224 276.497 167.943C277.511 167.851 278.607 167.745 279.634 167.736C280.495 167.756 281.355 167.777 282.16 167.978C282.962 168.692 283.848 169.391 284.566 170.12C285.105 170.794 285.644 171.469 286.113 172.241C286.043 172.338 286.07 172.504 286.001 172.602C285.018 175.507 284.022 178.329 282.929 181.082C281.836 183.835 280.577 186.618 279.304 189.317L280.98 190.134C282.24 187.352 283.402 184.501 284.482 181.665C284.776 180.845 285.071 180.024 285.295 179.302C287.912 177.478 290.625 175.723 293.338 173.968C293.644 173.743 293.95 173.519 294.173 173.309C296.394 173.263 298.698 173.202 300.919 173.155C302.112 173.117 303.389 173.065 304.57 172.944C305.75 172.823 307.027 172.771 308.263 172.469C307.013 172.688 305.82 172.726 304.639 172.847C303.446 172.884 302.169 172.937 300.961 172.892C298.99 172.894 296.923 172.829 294.952 172.831C297.095 171.261 299.058 169.637 300.994 167.847C301.217 167.637 301.44 167.427 301.663 167.217C303.287 167.19 304.883 166.996 306.467 166.719C308.217 166.414 309.939 165.942 311.441 165.167C309.842 165.873 308.106 166.262 306.426 166.47C305.079 166.62 303.635 166.702 302.261 166.686C304.281 164.881 306.189 162.924 308.015 160.983C308.085 160.885 308.238 160.773 308.308 160.675L308.391 160.661C309.6 160.193 310.809 159.726 312.019 159.258C312.575 158.99 313.214 158.708 313.77 158.44C314.327 158.171 314.966 157.889 315.509 157.538C315.038 157.279 314.468 157.464 313.829 157.746Z" fill="#579485"/>
<path d="M247.318 166.656C247.097 166.354 246.82 166.232 246.529 166.027C245.781 165.646 245.382 164.777 245.414 163.918C245.4 163.835 245.47 163.737 245.443 163.571C245.558 160.052 243.599 156.982 241.155 156.728C240.891 156.689 240.544 156.665 240.294 156.709C239.793 156.797 239.169 156.65 238.754 156.211C237.109 154.537 235.028 153.878 233.259 154.615C231.491 155.352 230.51 157.232 230.47 159.628C230.482 160.224 230.145 160.795 229.685 161.132C229.462 161.342 229.239 161.551 229.015 161.761C227.45 163.743 228.113 167.297 230.658 169.752C230.755 169.82 230.852 169.889 230.865 169.972C231.474 170.548 231.789 171.431 231.494 172.251C231.367 172.529 231.338 172.876 231.308 173.222C231.341 175.009 233.127 176.488 235.113 176.566C235.975 176.585 236.712 176.371 237.339 176.004C237.966 175.638 238.744 175.672 239.339 176.165C240.626 177.22 242.209 177.454 242.209 177.454C242.209 177.454 243.132 176.268 243.349 174.437C243.478 173.646 243.981 173.046 244.732 172.914C245.483 172.782 246.193 172.402 246.78 171.786C248.329 170.234 248.479 167.989 247.318 166.656Z" fill="#95BD59"/>
<path d="M240.766 171.079C239.812 168.935 239.839 169.101 239.604 168.714L240.729 166.123C240.911 165.663 240.271 165.432 240.088 165.892L239.217 167.926C238.166 165.714 237.557 164.622 236.352 162.522C236.985 164.808 237.273 166.041 238.003 168.395C236.444 167.811 235.736 167.164 235.483 167.722C235.23 168.279 236.178 168.285 238.236 169.295C238.402 169.78 238.374 169.613 239.077 171.801L237.324 171.08C236.865 170.903 236.625 171.544 237.084 171.72L239.394 172.687C240.801 176.548 241.132 177.517 243.043 180.777L244.006 180.353C243.716 179.633 244.123 178.964 240.999 171.979C241.717 170.057 242.388 169.427 241.832 169.181C241.735 169.113 241.342 169.866 240.766 171.079Z" fill="#B2C762"/>
<path d="M214.927 170.908C214.511 170.981 214.191 171.122 213.871 171.263C213.092 171.741 211.955 171.6 211.264 171.039C211.167 170.971 211.071 170.903 210.974 170.835C207.794 168.666 203.674 168.623 201.804 170.826C201.595 171.118 201.385 171.411 201.259 171.688C201.007 172.244 200.477 172.678 199.894 172.78C197.325 173.316 195.348 174.857 194.922 176.977C194.482 179.014 195.679 181.105 197.891 182.591C198.472 183 198.733 183.551 198.757 184.228C198.728 184.575 198.865 184.891 198.919 185.223C199.78 187.884 203.616 189.341 207.407 188.419C207.491 188.405 207.657 188.375 207.741 188.361C208.643 188.117 209.71 188.356 210.262 189.111C210.482 189.413 210.773 189.618 211.063 189.823C212.764 190.802 215.21 190.032 216.536 188.18C217.095 187.4 217.39 186.581 217.352 185.821C217.384 184.963 217.956 184.266 218.776 184.037C220.568 183.467 221.796 182.058 221.796 182.058C221.796 182.058 221.193 180.46 219.701 179.188C219.01 178.627 218.792 177.813 219.087 176.995C219.396 176.259 219.498 175.303 219.266 174.407C218.889 172.087 216.926 170.557 214.927 170.908Z" fill="#95BD59"/>
<path d="M214.963 179.713C212.431 179.389 212.597 179.36 211.988 179.297C210.459 177.266 210.297 176.274 209.672 176.638C209.131 176.987 210.001 177.601 210.95 179.222C207.463 178.81 205.913 178.74 204.196 178.699C205.731 179.197 207.266 179.695 210.668 180.633C209.224 181.736 208.157 182.007 208.501 182.543C208.845 183.078 209.389 182.218 211.65 180.887C212.19 181.048 212.01 180.994 214.5 181.581C213.291 182.557 212.294 182.732 212.638 183.267C212.982 183.803 213.608 182.928 215.551 181.738C222.911 183.346 222.414 182.922 225.362 183.174L225.601 182.026C224.979 181.879 224.165 181.085 215.918 179.802C214.513 178.005 214.351 177.013 213.809 177.362C213.378 177.863 214.235 178.394 214.963 179.713Z" fill="#B2C762"/>
<path d="M231.6 170.081C235.618 174.755 234.619 182.269 229.291 186.87C223.962 191.471 216.335 191.439 212.317 186.765C208.299 182.09 209.298 174.576 214.627 169.975C219.955 165.374 227.582 165.407 231.6 170.081Z" fill="#EADFD1"/>
<path d="M227.765 185.189C231.397 182.022 232.824 177.694 230.951 175.522C229.079 173.35 224.616 174.157 220.984 177.324C217.351 180.492 215.925 184.82 217.797 186.991C219.67 189.163 224.133 188.356 227.765 185.189Z" fill="#D1C3B4"/>
<path d="M232.838 184.428C235.381 187.4 234.803 189.636 233.09 191.217C231.28 192.729 229.016 193.039 226.473 190.067C223.93 187.095 221.978 181.969 223.789 180.457C225.405 178.808 230.198 181.387 232.838 184.428Z" fill="#E7E2D5"/>
<path d="M292.864 167.055C292.217 173.056 286.169 177.44 279.377 176.75C272.586 176.06 267.587 170.619 268.316 164.604C268.963 158.603 275.011 154.218 281.803 154.909C288.594 155.599 293.593 161.04 292.864 167.055Z" fill="#EADFD1"/>
<path d="M288.672 170.187C288.357 172.969 284.305 174.87 279.693 174.398C274.998 173.94 271.488 171.314 271.79 168.449C272.105 165.666 276.158 163.765 280.77 164.238C285.479 164.779 288.988 167.405 288.672 170.187Z" fill="#D1C3B4"/>
<path d="M283.57 177.506C283.167 181.337 281.121 182.463 278.857 182.261C276.594 182.058 274.891 180.561 275.294 176.73C275.697 172.9 278.174 168.108 280.438 168.311C282.701 168.514 283.974 173.675 283.57 177.506Z" fill="#E7E2D5"/>
<path d="M303.398 168.861C304.746 168.199 305.472 166.878 305.324 165.453C305.311 165.37 305.284 165.204 305.27 165.121C305.073 162.339 303.917 159.981 301.731 158.656C297.442 155.993 290.776 158.694 286.967 164.735C283.494 170.207 283.498 176.521 286.745 179.623C287.353 180.199 288.283 180.122 288.867 179.508C293.529 175.024 298.314 171.286 303.398 168.861Z" fill="#DB5955"/>
<path d="M292.945 171.462C295.14 168.094 298.41 166.071 301.337 166.153C301.85 166.148 302.24 165.909 302.519 165.519C302.798 165.129 302.717 164.632 302.47 164.164C302.029 163.56 301.505 162.97 300.84 162.576C297.604 160.587 292.71 162.64 289.844 167.149C287.733 170.502 287.313 174.241 288.577 176.746C288.825 177.214 289.392 177.54 289.975 177.438C290.558 177.336 291.004 176.916 291.077 176.307C291.334 174.728 291.924 173.09 292.945 171.462Z" fill="#BC1B2C"/>
<path d="M299.768 164.12C299.725 164.384 299.446 164.775 299.237 165.068C299.167 165.165 299.084 165.18 299 165.195C298.917 165.209 298.903 165.126 298.806 165.058C298.752 164.725 298.67 164.227 298.713 163.963C298.826 163.601 299.118 163.294 299.382 163.333C299.729 163.358 299.881 163.759 299.768 164.12Z" fill="#E7C644"/>
<path d="M296.714 164.731C296.838 164.966 296.849 165.562 296.834 165.992C296.848 166.075 296.778 166.173 296.694 166.188C296.611 166.202 296.527 166.217 296.43 166.148C296.126 165.86 295.71 165.419 295.586 165.185C295.435 164.784 295.52 164.256 295.84 164.114C296.091 164.071 296.479 164.345 296.714 164.731Z" fill="#E7C644"/>
<path d="M294.086 166.383C294.293 166.603 294.472 167.17 294.54 167.585C294.553 167.668 294.567 167.751 294.497 167.849C294.427 167.946 294.344 167.961 294.247 167.893C293.873 167.702 293.318 167.457 293.111 167.237C292.793 166.865 292.795 166.352 293.018 166.142C293.324 165.918 293.768 166.011 294.086 166.383Z" fill="#E7C644"/>
<path d="M291.859 168.395C292.052 168.531 292.48 169.054 292.715 169.44C292.728 169.523 292.742 169.606 292.672 169.703C292.602 169.801 292.519 169.816 292.436 169.83C291.992 169.737 291.382 169.673 291.175 169.453C290.788 169.179 290.637 168.779 290.846 168.486C290.958 168.125 291.471 168.121 291.859 168.395Z" fill="#E7C644"/>
<path d="M290.296 171.319C290.476 171.373 290.876 171.729 291.083 171.949C291.18 172.017 291.194 172.1 291.124 172.198C291.137 172.281 291.054 172.295 290.971 172.31C290.638 172.368 290.125 172.372 289.932 172.235C289.572 172.128 289.338 171.742 289.477 171.547C289.603 171.27 289.922 171.128 290.296 171.319Z" fill="#E7C644"/>
<path d="M289.494 174.199C289.673 174.252 289.95 174.374 290.143 174.511C290.143 174.511 290.24 174.579 290.17 174.677C290.184 174.759 290.101 174.774 290.101 174.774C289.851 174.818 289.532 174.959 289.352 174.905C289.089 174.865 288.882 174.646 288.938 174.466C288.995 174.286 289.23 174.159 289.494 174.199Z" fill="#E7C644"/>
<path d="M255.763 165.496C254.234 162.948 251.356 161.574 248.058 161.297C247.795 161.258 247.448 161.233 247.185 161.194C245.772 160.929 244.425 161.591 243.865 162.883C241.489 168.246 236.906 174.251 230.602 180.726C229.794 181.55 229.831 182.823 230.646 183.619C234.5 187.296 241.931 187.192 248.378 183.165C255.673 178.563 258.919 170.66 255.763 165.496Z" fill="#DB5955"/>
<path d="M240.666 176.32C244.783 173.723 247.146 169.816 247.093 166.332C247.082 165.738 247.418 165.168 247.891 164.915C248.363 164.661 249.043 164.627 249.527 164.968C250.287 165.431 250.908 166.089 251.376 166.858C253.798 170.692 251.329 176.577 245.891 180.002C241.843 182.502 237.375 182.945 234.304 181.44C233.653 181.128 233.379 180.495 233.438 179.803C233.58 179.097 234.096 178.58 234.775 178.546C236.704 178.293 238.719 177.513 240.666 176.32Z" fill="#BC1B2C"/>
<path d="M249.468 168.049C249.218 168.093 248.677 168.443 248.288 168.681C248.205 168.695 248.149 168.875 248.163 168.958C248.176 169.041 248.273 169.109 248.369 169.178C248.812 169.271 249.338 169.349 249.671 169.291C250.17 169.204 250.448 168.815 250.394 168.483C250.423 168.138 249.967 167.962 249.468 168.049Z" fill="#E7C644"/>
<path d="M248.737 171.856C248.46 171.733 247.684 171.699 247.171 171.703C247.088 171.717 246.921 171.746 246.948 171.912C246.975 172.078 246.906 172.176 247.002 172.244C247.32 172.615 247.831 173.123 248.191 173.23C248.744 173.475 249.23 173.305 249.426 172.929C249.538 172.569 249.29 172.1 248.737 171.856Z" fill="#E7C644"/>
<path d="M246.787 175.016C246.497 174.811 245.859 174.58 245.319 174.419C245.222 174.35 245.069 174.462 244.986 174.477C244.902 174.491 244.93 174.658 244.957 174.824C245.205 175.292 245.48 175.927 245.77 176.133C246.171 176.49 246.782 176.554 247.074 176.247C247.367 175.939 247.188 175.373 246.787 175.016Z" fill="#E7C644"/>
<path d="M244.326 177.665C244.105 177.362 243.523 176.951 243.135 176.677C243.038 176.608 242.955 176.623 242.788 176.652C242.718 176.75 242.648 176.847 242.662 176.93C242.743 177.429 242.866 178.177 243.087 178.48C243.418 178.935 243.973 179.18 244.28 178.955C244.669 178.716 244.658 178.12 244.326 177.665Z" fill="#E7C644"/>
<path d="M240.868 179.458C240.744 179.223 240.412 178.768 240.108 178.48C240.011 178.411 239.927 178.426 239.844 178.44C239.76 178.455 239.69 178.552 239.704 178.636C239.688 179.066 239.617 179.677 239.741 179.911C239.892 180.312 240.28 180.587 240.614 180.528C240.934 180.387 241.033 179.942 240.868 179.458Z" fill="#E7C644"/>
<path d="M237.451 180.474C237.424 180.307 237.189 179.921 237.065 179.686C237.051 179.603 236.968 179.618 236.885 179.632C236.801 179.647 236.801 179.647 236.731 179.744C236.689 180.008 236.59 180.453 236.617 180.619C236.671 180.952 236.879 181.172 237.129 181.128C237.366 181.001 237.492 180.723 237.451 180.474Z" fill="#E7C644"/>
<path d="M273.858 173.938C273.85 167.199 268.36 161.809 261.596 161.9C254.832 161.99 249.355 167.527 249.363 174.265C249.372 181.004 254.862 186.394 261.626 186.303C268.39 186.213 273.867 180.677 273.858 173.938Z" fill="#6EAC69"/>
<path d="M272.575 174.71C272.994 168.583 268.428 163.333 262.377 162.983C256.326 162.634 251.081 167.318 250.662 173.446C250.243 179.573 254.809 184.823 260.86 185.172C266.911 185.521 272.156 180.837 272.575 174.71Z" fill="#E7FFA8"/>
<path d="M266.648 173.22C267.095 175.958 265.213 178.592 262.465 179.072C259.717 179.552 257.102 177.705 256.655 174.966C256.207 172.227 258.09 169.594 260.838 169.114C263.586 168.633 266.2 170.481 266.648 173.22Z" fill="#B4D16F"/>
<path d="M261.468 177.124C261.413 176.792 261.568 176.166 261.667 175.721C261.654 175.638 261.807 175.526 261.891 175.511C261.974 175.497 262.071 175.565 262.168 175.634C262.403 176.02 262.748 176.558 262.803 176.891C262.884 177.389 262.618 177.863 262.285 177.922C261.867 177.995 261.563 177.706 261.468 177.124Z" fill="#E7FFA8"/>
<path d="M260.513 171.378C260.568 171.711 260.913 172.249 261.148 172.635C261.162 172.718 261.342 172.772 261.426 172.758C261.509 172.743 261.579 172.645 261.649 172.548C261.748 172.103 261.903 171.477 261.849 171.145C261.767 170.646 261.366 170.289 261.032 170.347C260.614 170.42 260.432 170.879 260.513 171.378Z" fill="#E7FFA8"/>
<path d="M263.654 176.403C263.364 176.197 263.019 175.66 262.784 175.274C262.771 175.191 262.757 175.108 262.827 175.011C262.897 174.913 262.98 174.899 263.063 174.884C263.507 174.977 264.13 175.124 264.421 175.33C264.808 175.604 264.973 176.087 264.764 176.379C264.555 176.672 264.041 176.676 263.654 176.403Z" fill="#E7FFA8"/>
<path d="M258.909 173.022C259.2 173.227 259.823 173.374 260.267 173.467C260.35 173.453 260.433 173.438 260.503 173.341C260.573 173.243 260.559 173.16 260.546 173.077C260.311 172.691 259.967 172.154 259.676 171.949C259.289 171.675 258.776 171.68 258.567 171.972C258.261 172.196 258.425 172.68 258.909 173.022Z" fill="#E7FFA8"/>
<path d="M264.678 174.339C264.346 174.397 263.723 174.25 263.28 174.157C263.197 174.172 263.087 174.021 263.073 173.938C263.06 173.855 263.129 173.758 263.199 173.66C263.588 173.422 264.129 173.072 264.462 173.014C264.961 172.927 265.43 173.185 265.485 173.517C265.539 173.848 265.177 174.252 264.678 174.339Z" fill="#E7FFA8"/>
<path d="M258.868 175.338C259.201 175.28 259.743 174.93 260.131 174.692C260.214 174.677 260.27 174.497 260.257 174.414C260.243 174.331 260.147 174.263 260.05 174.195C259.607 174.102 258.984 173.955 258.652 174.013C258.153 174.1 257.791 174.504 257.845 174.835C257.9 175.166 258.37 175.425 258.868 175.338Z" fill="#E7FFA8"/>
<path d="M263.892 172.163C263.683 172.455 263.141 172.806 262.752 173.045C262.669 173.06 262.585 173.074 262.488 173.006C262.392 172.937 262.378 172.854 262.364 172.771C262.463 172.327 262.618 171.703 262.827 171.41C263.106 171.02 263.592 170.85 263.883 171.055C264.16 171.177 264.241 171.675 263.892 172.163Z" fill="#E7FFA8"/>
<path d="M260.503 176.942C260.712 176.65 260.867 176.025 260.966 175.581C260.952 175.498 260.938 175.415 260.842 175.347C260.745 175.278 260.662 175.293 260.578 175.307C260.189 175.546 259.647 175.897 259.438 176.19C259.159 176.58 259.157 177.092 259.447 177.297C259.738 177.503 260.224 177.332 260.503 176.942Z" fill="#E7FFA8"/>
<path d="M239.632 228.355L282.16 220.982C284.402 220.593 286.536 219.541 288.241 217.966C300.402 206.73 306.942 189.9 304.336 172.522L203.166 190.061C206.354 207.338 217.921 221.029 232.922 227.556C235.037 228.469 237.389 228.744 239.632 228.355Z" fill="white"/>
<path d="M304.763 182.85C304.793 182 304.822 181.149 304.838 180.216L205.091 197.374C205.393 198.167 205.709 199.043 206.012 199.837L304.763 182.85Z" fill="#ABE0E3"/>
<path d="M300.314 201.205C302.009 197.516 303.248 193.652 303.962 189.708L209.007 206.103C211.046 209.656 213.446 212.807 216.15 215.736L300.314 201.205Z" fill="#ABE0E3"/>
<path d="M171.754 206.904C171.115 206.254 170.293 205.883 169.38 205.883C168.466 205.883 167.553 206.254 167.005 206.904C166.457 207.553 166 208.481 166 209.317C166 210.245 166.365 211.173 167.005 211.729C167.644 212.379 168.466 212.75 169.38 212.75C170.293 212.75 171.206 212.379 171.754 211.729C172.394 211.173 172.759 210.152 172.759 209.317C172.668 208.481 172.394 207.553 171.754 206.904Z" fill="#FFF1CE"/>
<path d="M180.754 141.879C180.115 141.23 179.293 140.858 178.38 140.858C177.466 140.858 176.553 141.23 176.005 141.879C175.457 142.529 175 143.457 175 144.292C175 145.22 175.365 146.148 176.005 146.705C176.644 147.355 177.466 147.726 178.38 147.726C179.293 147.726 180.206 147.355 180.754 146.705C181.394 146.148 181.759 145.127 181.759 144.292C181.668 143.457 181.394 142.529 180.754 141.879Z" fill="#FFF1CE"/>
<path d="M248.754 124.607C248.115 123.958 247.293 123.586 246.38 123.586C245.466 123.586 244.553 123.958 244.005 124.607C243.457 125.257 243 126.185 243 127.02C243 127.948 243.365 128.876 244.005 129.433C244.644 130.083 245.466 130.454 246.38 130.454C247.293 130.454 248.206 130.083 248.754 129.433C249.394 128.876 249.759 127.855 249.759 127.02C249.668 126.185 249.394 125.257 248.754 124.607Z" fill="#FFF1CE"/>
<path d="M47.7544 268.88C47.1151 268.231 46.293 267.859 45.3796 267.859C44.4662 267.859 43.5528 268.231 43.0047 268.88C42.4567 269.53 42 270.458 42 271.293C42 272.221 42.3654 273.149 43.0047 273.706C43.6441 274.356 44.4662 274.727 45.3796 274.727C46.293 274.727 47.2064 274.356 47.7544 273.706C48.3938 273.149 48.7592 272.128 48.7592 271.293C48.6678 270.458 48.3938 269.53 47.7544 268.88Z" fill="#FFF1CE"/>
<path d="M142.736 77.4461C132.853 82.419 121.743 84.8572 110.484 84.2184C104.05 83.8534 99.0972 78.2401 99.5174 71.7242C99.9376 65.2084 105.53 60.1431 111.963 60.5081C126.306 61.2841 140.142 54.3221 148.26 42.2442C151.888 36.8159 159.233 35.3714 164.563 38.9939C169.893 42.6164 171.252 50.0381 167.624 55.4664C161.184 65.0111 152.619 72.4733 142.736 77.4461Z" fill="#EDC75E"/>
<path d="M143.492 78.9946C132.085 84.733 119.365 87.5305 106.366 86.7544C100.828 86.3895 96.6272 81.6377 96.9045 75.9837C97.3155 70.375 102.049 66.0805 107.634 66.3097C126.484 67.4056 144.807 58.1881 155.417 42.2719C158.501 37.5693 164.815 36.3062 169.478 39.4751C174.097 42.5535 175.287 48.932 172.113 53.6798C164.813 64.6674 154.809 73.3015 143.492 78.9946Z" fill="#E18668"/>
<path d="M143.506 79.0215C154.91 73.2874 164.82 64.7036 172.117 53.7216C172.977 52.5014 173.437 51.1453 173.763 49.7438C173.055 48.9747 172.301 48.3411 171.368 47.7979C165.859 44.4933 158.646 46.4324 155.332 52.0367C147.977 64.5107 134.587 72.3686 120.243 72.494C113.764 72.4894 108.531 77.8211 108.47 84.3772C108.461 85.2815 108.499 86.0501 108.67 86.8641C120.82 87.2797 132.732 84.4397 143.506 79.0215Z" fill="#DB5955"/>
<path d="M149.376 91.1117C139.493 96.0845 128.383 98.5228 117.124 97.8839C110.69 97.5189 105.737 91.9056 106.157 85.3898C106.577 78.874 112.169 73.8086 118.603 74.1736C132.946 74.9497 146.781 67.9877 154.899 55.9097C158.528 50.4814 165.873 49.0369 171.203 52.6594C176.533 56.2819 177.892 63.7036 174.263 69.1319C167.824 78.6766 159.258 86.1388 149.376 91.1117Z" fill="#EDC75E"/>
<path d="M137.468 62.8673L136.106 60.0516C135.114 60.5507 134.123 61.0498 133.132 61.5488L134.495 64.3645C134.89 65.1819 135.829 65.5001 136.64 65.0918C137.541 64.6381 137.864 63.6847 137.468 62.8673Z" fill="#DB5955"/>
<path d="M114.389 70.0193C115.2 69.6109 115.523 68.6575 115.127 67.84L114.38 66.2959C113.169 66.3408 112.002 66.4766 110.747 66.4307L112.109 69.2464C112.639 70.1094 113.578 70.4276 114.389 70.0193Z" fill="#DB5955"/>
<path d="M145.527 58.8214C146.338 58.4132 146.661 57.4599 146.265 56.6425L144.991 54.0088C144.131 54.7803 143.228 55.4609 142.281 56.0508L143.292 58.1396C143.688 58.9569 144.716 59.2297 145.527 58.8214Z" fill="#DB5955"/>
<path d="M126.427 68.4006C127.238 67.9923 127.561 67.039 127.165 66.2216L126.155 64.1328C125.076 64.4502 123.997 64.7676 122.918 65.085L124.192 67.7187C124.678 68.4907 125.616 68.8088 126.427 68.4006Z" fill="#DB5955"/>
<path d="M154.112 50.0967C154.923 49.6884 155.246 48.735 154.851 47.9176L153.488 45.1019C152.717 46.0551 151.945 47.0083 151.174 47.9615L151.921 49.5056C152.363 50.1868 153.301 50.505 154.112 50.0967Z" fill="#DB5955"/>
<path d="M137.338 66.297C135.992 66.9734 134.472 67.0624 133.137 66.6096C132.024 66.1569 130.724 66.6979 130.177 67.8719C129.584 69.1814 128.37 70.129 126.936 70.6246C125.502 71.1203 123.985 70.9835 122.741 70.2597C121.674 69.6715 120.376 69.9866 119.608 70.9346C118.838 72.1084 117.446 72.9203 115.97 73.0998C114.495 73.2792 112.98 72.9165 111.871 72.0121C111.162 71.4694 111.082 70.3852 111.625 69.6629C112.168 68.9406 113.24 68.8512 113.95 69.3939C114.349 69.7556 114.973 69.8917 115.599 69.8018C116.225 69.712 116.72 69.3511 116.991 68.9899C118.755 66.6425 121.843 65.8772 124.331 67.3248C124.82 67.6414 125.4 67.6871 125.982 67.5069C126.564 67.3267 126.969 67.0109 127.243 66.4239C128.562 63.8502 131.521 62.5879 134.236 63.584C135.305 63.9463 136.651 63.2698 136.929 62.2311C137.803 59.4311 140.587 57.8073 143.397 58.3066C143.887 58.3974 144.513 58.3076 145.008 57.9466C145.502 57.5856 145.82 57.089 145.87 56.5018C146.254 53.6111 148.819 51.5354 151.632 51.5829C152.212 51.6286 152.751 51.358 153.202 50.9067C153.652 50.4554 153.836 49.9134 153.886 49.3262C153.895 48.4228 154.617 47.6103 155.51 47.6111C156.403 47.6118 157.2 48.3353 157.192 49.2387C157.223 50.6843 156.585 52.1292 155.548 53.2125C154.51 54.2958 153.076 54.7914 151.647 54.8354C150.397 54.7891 149.405 55.7369 149.215 56.9564C149.023 58.4018 148.207 59.7111 146.949 60.5683C145.69 61.4255 144.302 61.7857 142.831 61.5134C141.627 61.3316 140.504 62.0083 140.091 63.2276C139.588 64.492 138.594 65.6656 137.338 66.297Z" fill="#EDC75E"/>
<path d="M258.415 261.637C261.127 259.96 264.243 258.712 267.335 257.648C272.667 255.681 277.897 253.794 283.23 251.827C295.634 247.295 308.232 242.697 321.301 240.124C325.275 239.368 328.621 237.779 332.601 237.678C309.925 249.465 284.355 257.303 258.415 261.637Z" fill="#7CA661"/>
<path d="M253.596 263.242C261.428 259.844 269.025 256.132 276.488 252.028C279.872 250.161 283.359 248.216 286.284 245.631C289.414 242.888 291.891 239.494 294.682 236.517C299.715 231.234 305.885 227.138 312.043 223.133C311.12 229.453 307.912 234.896 303.441 239.415C298.879 243.922 293.452 247.28 287.971 250.351C284.883 252.072 281.807 253.701 278.508 254.925C276.586 255.499 258.166 263.596 253.596 263.242Z" fill="#AEDC90"/>
<path d="M268.051 256.556C268.051 256.556 267.284 258.876 268.263 259.852C268.263 259.852 250.35 266.981 246.327 265.303C242.395 263.637 244.816 261.359 247.341 261.803C249.866 262.247 263.304 258.978 268.051 256.556Z" fill="white"/>
</svg>
